<?xml version="1.0" encoding="utf-8"?>
<!-- Generator: Adobe Illustrator 16.0.0, SVG Export Plug-In . SVG Version: 6.00 Build 0)  -->
<!DOCTYPE svg PUBLIC "-//W3C//DTD SVG 1.1//EN" "http://www.w3.org/Graphics/SVG/1.1/DTD/svg11.dtd">
<svg version="1.1" id="Layer_1" xmlns="http://www.w3.org/2000/svg" xmlns:xlink="http://www.w3.org/1999/xlink" x="0px" y="0px"
	 width="36px" height="36px" viewBox="0 0 36 36" enable-background="new 0 0 36 36" xml:space="preserve">
<g>
	<rect fill="none" width="36" height="36"/>
	<path d="M29,0h-6v18h-2.625V0H9.625v20.624H18v2.625H8c-0.552,0-1-0.448-1-1V0C3.134,0,0,3.134,0,7v22c0,3.866,3.134,7,7,7h14.413
		l-0.001-12.744l-1.803,0.003v-3.649h3.623v1.832L36,21.438V7C36,3.134,32.866,0,29,0"/>
	<rect fill="none" width="36" height="36"/>
	<path d="M23.234,36H29c3.866,0,7-3.134,7-7v-5.746l-12.768,0.002L23.234,36z"/>
</g>
</svg>
