<?xml version="1.0" encoding="utf-8"?>
<!-- Generator: Adobe Illustrator 16.0.0, SVG Export Plug-In . SVG Version: 6.00 Build 0)  -->
<!DOCTYPE svg PUBLIC "-//W3C//DTD SVG 1.1//EN" "http://www.w3.org/Graphics/SVG/1.1/DTD/svg11.dtd">
<svg version="1.1" id="Layer_1" xmlns="http://www.w3.org/2000/svg" xmlns:xlink="http://www.w3.org/1999/xlink" x="0px" y="0px"
	 width="71.027px" height="71.029px" viewBox="0 0 71.027 71.029" enable-background="new 0 0 71.027 71.029" xml:space="preserve">
<g>
	<rect x="0" y="0" fill="none" width="71.027" height="71.029"/>
	<path fill="#1C1918" d="M35.514,0C15.933,0,0,15.931,0,35.515c0,19.582,15.933,35.514,35.514,35.514
		c19.582,0,35.515-15.932,35.515-35.514C71.028,15.931,55.096,0,35.514,0 M35.514,65.692c-16.64,0-30.177-13.537-30.177-30.177
		c0-16.642,13.537-30.18,30.177-30.18c16.641,0,30.177,13.538,30.177,30.18C65.69,52.155,52.154,65.692,35.514,65.692"/>
	<rect x="0" y="0" fill="none" width="71.027" height="71.029"/>
	<path fill="#1C1918" d="M35.515,10.45c-13.828,0-25.062,11.239-25.062,25.061c0,13.82,11.232,25.067,25.062,25.067
		c13.819,0,25.062-11.247,25.062-25.067C60.575,21.689,49.334,10.45,35.515,10.45 M44.683,48.192l-9.144-6.995l-9.111,7.039
		l3.827-10.858l-9.51-6.489l11.51,0.284l3.232-11.05l3.286,11.034l11.51-0.339l-9.479,6.535L44.683,48.192z"/>
</g>
</svg>
