<?xml version="1.0" encoding="utf-8"?>
<!-- Generator: Adobe Illustrator 16.0.0, SVG Export Plug-In . SVG Version: 6.00 Build 0)  -->
<!DOCTYPE svg PUBLIC "-//W3C//DTD SVG 1.1//EN" "http://www.w3.org/Graphics/SVG/1.1/DTD/svg11.dtd">
<svg version="1.1" id="Layer_1" xmlns="http://www.w3.org/2000/svg" xmlns:xlink="http://www.w3.org/1999/xlink" x="0px" y="0px"
	 width="71.027px" height="71.029px" viewBox="0 0 71.027 71.029" enable-background="new 0 0 71.027 71.029" xml:space="preserve">
<g>
	<rect x="0" y="0" fill="none" width="71.027" height="71.029"/>
	<path fill="#1C1918" d="M35.514,0C15.932,0,0,15.931,0,35.515c0,19.582,15.932,35.514,35.514,35.514s35.515-15.932,35.515-35.514
		C71.028,15.931,55.096,0,35.514,0 M35.514,65.692c-16.64,0-30.177-13.537-30.177-30.177c0-16.642,13.537-30.18,30.177-30.18
		c16.641,0,30.177,13.538,30.177,30.18C65.69,52.155,52.154,65.692,35.514,65.692"/>
	<rect x="0" y="0" fill="none" width="71.027" height="71.029"/>
	<path fill="#1C1918" d="M35.514,10.279c-13.937,0-25.236,11.298-25.236,25.235s11.3,25.235,25.236,25.235
		c13.938,0,25.236-11.298,25.236-25.235S49.452,10.279,35.514,10.279 M34.538,53.859l-17.254-7.854V26.405l17.254,8.389V53.859z
		 M35.514,33.098l-16.921-8.228c2.256-1.027,16.921-7.701,16.921-7.701l16.921,7.701L35.514,33.098z M36.489,53.859V34.794
		l17.256-8.389v19.602C53.744,46.006,38.237,53.063,36.489,53.859"/>
</g>
</svg>
