<?xml version="1.0" encoding="utf-8"?>
<!-- Generator: Adobe Illustrator 16.0.0, SVG Export Plug-In . SVG Version: 6.00 Build 0)  -->
<!DOCTYPE svg PUBLIC "-//W3C//DTD SVG 1.1//EN" "http://www.w3.org/Graphics/SVG/1.1/DTD/svg11.dtd">
<svg version="1.1" id="Layer_1" xmlns="http://www.w3.org/2000/svg" xmlns:xlink="http://www.w3.org/1999/xlink" x="0px" y="0px"
	 width="400.995px" height="401px" viewBox="-164.984 -164.986 400.995 401" enable-background="new -164.984 -164.986 400.995 401"
	 xml:space="preserve">
<g>
	<rect x="-164.984" y="-164.986" fill="none" width="400.995" height="401"/>
	<path fill="#1C1918" d="M35.516-164.986c-110.551,0-200.5,89.943-200.5,200.505c0,110.551,89.949,200.495,200.5,200.495
		c110.552,0,200.5-89.943,200.5-200.495C236.011-75.043,146.068-164.986,35.516-164.986 M35.516,205.885
		c-93.945,0-170.37-76.425-170.37-170.365c0-93.951,76.425-170.381,170.37-170.381c93.946,0,170.365,76.43,170.365,170.381
		C205.876,129.46,129.457,205.885,35.516,205.885"/>
	<rect x="-164.984" y="-164.986" fill="none" width="400.995" height="401"/>
	<path fill="#ED2226" d="M32.275-35.628v-71.331c-36.724,0.739-68.723,13.987-95.214,39.442l50.463,50.457
		C-0.556-27.954,15.073-34.857,32.275-35.628"/>
	<rect x="-164.984" y="-164.986" fill="none" width="400.995" height="401"/>
	<path fill="#643090" d="M-35.626,32.272c0.772-17.201,7.674-32.831,18.563-44.756L-67.52-62.941
		c-25.449,26.486-38.703,58.49-39.436,95.213H-35.626z"/>
	<rect x="-164.984" y="-164.986" fill="none" width="400.995" height="401"/>
	<path fill="#1B66B0" d="M-39.535,105.99l22.472-22.472c-10.894-11.931-17.791-27.566-18.568-44.762h-71.325
		c0.733,36.729,13.987,68.733,39.436,95.213L-39.535,105.99z"/>
	<rect x="-164.984" y="-164.986" fill="none" width="400.995" height="401"/>
	<path fill="#18AE4B" d="M32.275,106.657c-17.202-0.777-32.832-7.669-44.757-18.562l-50.457,50.457
		c26.485,25.454,58.49,38.703,95.214,39.436V106.657z"/>
	<rect x="-164.984" y="-164.986" fill="none" width="400.995" height="401"/>
	<path fill="#F3EA16" d="M38.753,106.657v71.325c36.724-0.739,68.733-13.987,95.208-39.437L83.51,88.083
		C71.579,98.983,55.954,105.88,38.753,106.657"/>
	<rect x="-164.984" y="-164.986" fill="none" width="400.995" height="401"/>
	<path fill="#FDC613" d="M106.654,38.751c-0.771,17.201-7.669,32.826-18.563,44.762l50.463,50.452
		c25.449-26.475,38.697-58.485,39.431-95.208h-71.33V38.751z"/>
	<rect x="-164.984" y="-164.986" fill="none" width="400.995" height="401"/>
	<path fill="#F79320" d="M177.984,32.272c-0.738-36.724-13.992-68.728-39.436-95.213L88.086-12.479
		c10.894,11.92,17.791,27.556,18.562,44.757L177.984,32.272L177.984,32.272z"/>
	<rect x="-164.984" y="-164.986" fill="none" width="400.995" height="401"/>
	<path fill="#F06923" d="M38.753-35.628c17.201,0.771,32.826,7.674,44.763,18.568l50.451-50.457
		c-26.48-25.455-58.479-38.709-95.208-39.442v71.331H38.753z"/>
</g>
</svg>
