<?xml version="1.0" encoding="utf-8"?>
<!-- Generator: Adobe Illustrator 16.0.0, SVG Export Plug-In . SVG Version: 6.00 Build 0)  -->
<!DOCTYPE svg PUBLIC "-//W3C//DTD SVG 1.1//EN" "http://www.w3.org/Graphics/SVG/1.1/DTD/svg11.dtd">
<svg version="1.1" id="Layer_1" xmlns="http://www.w3.org/2000/svg" xmlns:xlink="http://www.w3.org/1999/xlink" x="0px" y="0px"
	 width="71.027px" height="71.029px" viewBox="0 0 71.027 71.029" enable-background="new 0 0 71.027 71.029" xml:space="preserve">
<g>
	<rect x="0" y="0" fill="none" width="71.027" height="71.029"/>
	<path fill="#1C1918" d="M35.513,0C15.932,0,0,15.931,0,35.515c0,19.582,15.932,35.514,35.513,35.514
		c19.582,0,35.516-15.932,35.516-35.514C71.028,15.931,55.095,0,35.513,0 M35.513,65.692c-16.639,0-30.176-13.537-30.176-30.177
		c0-16.642,13.537-30.18,30.176-30.18c16.641,0,30.178,13.538,30.178,30.18C65.69,52.155,52.153,65.692,35.513,65.692"/>
	<rect x="0" y="0" fill="none" width="71.027" height="71.029"/>
	<path fill="#1C1918" d="M35.513,10.279c-13.936,0-25.235,11.298-25.235,25.234c0,13.938,11.301,25.235,25.235,25.235
		c13.938,0,25.236-11.298,25.236-25.235C60.749,21.577,49.45,10.279,35.513,10.279 M50.489,44.858
		c-0.387,0.923-2.887,5.878-12.149,6.618c-0.312,1.273-1.455,2.225-2.826,2.225c-1.61,0-2.916-1.306-2.916-2.916
		s1.306-2.917,2.916-2.917c1.125,0,2.09,0.646,2.578,1.577c5.647-0.429,8.377-2.516,9.609-3.974c-0.005,0-0.011,0.001-0.017,0.001
		v-13.38c-0.793-6.016-5.94-10.678-12.172-10.678c-6.229,0-11.377,4.662-12.172,10.678v13.38c-3.738,0-6.771-3.032-6.771-6.771
		c0-2.154,1.013-4.07,2.581-5.311c0.169-8.886,7.438-16.062,16.36-16.062c8.926,0,16.191,7.177,16.361,16.062
		c1.569,1.239,2.582,3.155,2.582,5.311C54.456,41.439,52.827,43.791,50.489,44.858"/>
</g>
</svg>
