<?xml version="1.0" encoding="utf-8"?>
<!-- Generator: Adobe Illustrator 16.0.0, SVG Export Plug-In . SVG Version: 6.00 Build 0)  -->
<!DOCTYPE svg PUBLIC "-//W3C//DTD SVG 1.1//EN" "http://www.w3.org/Graphics/SVG/1.1/DTD/svg11.dtd">
<svg version="1.1" id="Layer_1" xmlns="http://www.w3.org/2000/svg" xmlns:xlink="http://www.w3.org/1999/xlink" x="0px" y="0px"
	 width="36px" height="36px" viewBox="0 0 36 36" enable-background="new 0 0 36 36" xml:space="preserve">
<g>
	<rect fill="none" width="36" height="36"/>
	<path d="M13.375,26.375h9.251V9.625h-9.251V26.375z M19.775,22.795c0.697,0,1.262,0.564,1.262,1.266c0,0.693-0.562,1.26-1.262,1.26
		c-0.697,0-1.26-0.565-1.26-1.26C18.516,23.359,19.078,22.795,19.775,22.795 M16.306,20.229c0.488,0,0.887,0.396,0.887,0.883
		c0,0.486-0.398,0.883-0.887,0.883c-0.489,0-0.884-0.396-0.884-0.883C15.422,20.623,15.818,20.229,16.306,20.229"/>
	<rect fill="none" width="36" height="36"/>
	<path d="M29,0H7C3.134,0,0,3.133,0,7v22c0,3.866,3.134,7,7,7h22c3.866,0,7-3.134,7-7V7C36,3.133,32.867,0,29,0 M30.895,13.324
		c0.487,0,0.887,0.396,0.887,0.883c0,0.487-0.398,0.883-0.887,0.883c-0.49,0-0.885-0.396-0.885-0.883
		C30.01,13.72,30.406,13.324,30.895,13.324 M29.092,17.118c0.702,0,1.264,0.564,1.264,1.264c0,0.695-0.562,1.263-1.264,1.263
		c-0.695,0-1.259-0.566-1.259-1.263C27.833,17.682,28.396,17.118,29.092,17.118 M3.841,21.993c-0.49,0-0.883-0.396-0.883-0.882
		c0-0.488,0.393-0.885,0.883-0.885c0.489,0,0.885,0.396,0.885,0.885S4.331,21.993,3.841,21.993 M5.223,17.5
		c0-0.488,0.394-0.884,0.881-0.884c0.491,0,0.888,0.396,0.888,0.884c0,0.487-0.396,0.882-0.888,0.882
		C5.617,18.382,5.223,17.986,5.223,17.5 M5.6,27.307c0-0.488,0.394-0.886,0.884-0.886c0.487,0,0.883,0.396,0.883,0.886
		c0,0.485-0.396,0.881-0.883,0.881C5.994,28.188,5.6,27.792,5.6,27.307 M7.875,33.455c-0.49,0-0.883-0.395-0.883-0.883
		c0-0.487,0.393-0.883,0.883-0.883c0.488,0,0.883,0.396,0.883,0.883C8.757,33.061,8.363,33.455,7.875,33.455 M8.251,24.059
		c-0.488,0-0.883-0.396-0.883-0.883c0-0.488,0.395-0.885,0.883-0.885c0.489,0,0.885,0.396,0.885,0.885
		C9.136,23.662,8.741,24.059,8.251,24.059 M15.13,32.572c-0.488,0-0.883-0.395-0.883-0.883c0-0.486,0.395-0.883,0.883-0.883
		c0.489,0,0.887,0.396,0.887,0.883C16.017,32.18,15.62,32.572,15.13,32.572 M23.76,33.33c-0.695,0-1.259-0.564-1.259-1.26
		c0-0.701,0.562-1.264,1.259-1.264c0.698,0,1.264,0.562,1.264,1.264C25.023,32.766,24.458,33.33,23.76,33.33 M25.25,28
		c0,0.553-0.448,1-1,1h-12.5c-0.552,0-1-0.447-1-1V8c0-0.553,0.448-1,1-1h12.5c0.552,0,1,0.447,1,1V28z M26.951,22.671
		c0-0.485,0.393-0.883,0.881-0.883c0.491,0,0.887,0.396,0.887,0.883s-0.396,0.884-0.887,0.884
		C27.343,23.555,26.951,23.158,26.951,22.671 M28.716,28.625c-0.487,0-0.883-0.395-0.883-0.883c0-0.487,0.396-0.883,0.883-0.883
		c0.489,0,0.888,0.396,0.888,0.883C29.604,28.23,29.206,28.625,28.716,28.625 M30.008,33.666c-0.486,0-0.881-0.395-0.881-0.882
		s0.395-0.884,0.881-0.884c0.491,0,0.889,0.396,0.889,0.884S30.5,33.666,30.008,33.666 M31.779,25.318
		c-0.697,0-1.26-0.564-1.26-1.26c0-0.699,0.562-1.265,1.26-1.265s1.264,0.565,1.264,1.265
		C33.042,24.754,32.477,25.318,31.779,25.318"/>
</g>
</svg>
