<?xml version="1.0" encoding="utf-8"?>
<!-- Generator: Adobe Illustrator 16.0.0, SVG Export Plug-In . SVG Version: 6.00 Build 0)  -->
<!DOCTYPE svg PUBLIC "-//W3C//DTD SVG 1.1//EN" "http://www.w3.org/Graphics/SVG/1.1/DTD/svg11.dtd">
<svg version="1.1" id="Layer_1" xmlns="http://www.w3.org/2000/svg" xmlns:xlink="http://www.w3.org/1999/xlink" x="0px" y="0px"
	 width="36px" height="36px" viewBox="0 0 36 36" enable-background="new 0 0 36 36" xml:space="preserve">
<g>
	<rect fill="none" width="36" height="36"/>
	<path d="M29,0H7C3.134,0,0,3.134,0,7v22c0,3.865,3.134,7,7,7h22c3.865,0,7-3.135,7-7V7C36,3.134,32.866,0,29,0 M26.002,30.625
		c0,0.553-0.449,1-1,1h-14c-0.552,0-1-0.447-1-1v-4.566h2.625V29h10.75v-2.941h2.625V30.625z M15.69,14.139l-1.414-1.414L18,9
		l3.725,3.725l-1.414,1.414L19,12.829v10.343l1.311-1.311l1.414,1.414L18,27l-3.724-3.725l1.414-1.414L17,23.172V12.829
		L15.69,14.139z M26.002,23.434h-2.625V7h-10.75v16.434h-2.625V5.375c0-0.552,0.448-1,1-1h14c0.551,0,1,0.448,1,1V23.434z"/>
</g>
</svg>
