<?xml version="1.0" encoding="utf-8"?>
<!-- Generator: Adobe Illustrator 16.0.0, SVG Export Plug-In . SVG Version: 6.00 Build 0)  -->
<!DOCTYPE svg PUBLIC "-//W3C//DTD SVG 1.1//EN" "http://www.w3.org/Graphics/SVG/1.1/DTD/svg11.dtd">
<svg version="1.1" id="Layer_1" xmlns="http://www.w3.org/2000/svg" xmlns:xlink="http://www.w3.org/1999/xlink" x="0px" y="0px"
	 width="36px" height="36px" viewBox="0 0 36 36" enable-background="new 0 0 36 36" xml:space="preserve">
<g>
	<rect fill="none" width="36" height="36"/>
	<path d="M29,0H7C3.134,0,0,3.134,0,7v22c0,3.866,3.134,7,7,7h22c3.866,0,7-3.134,7-7V7C36,3.134,32.866,0,29,0 M12.465,17
		l3.24-6.96h2.575L14.958,17h2.035v-2.146h2.462V17h1.303v2.146h-1.303v2.016h-2.462v-2.016h-4.528V17z M26.002,25.002
		c0,0.553-0.447,1-1,1h-15v-2.625h13.375V10.002h2.625V25.002z"/>
</g>
</svg>
