<?xml version="1.0" encoding="utf-8"?>
<!-- Generator: Adobe Illustrator 16.0.0, SVG Export Plug-In . SVG Version: 6.00 Build 0)  -->
<!DOCTYPE svg PUBLIC "-//W3C//DTD SVG 1.1//EN" "http://www.w3.org/Graphics/SVG/1.1/DTD/svg11.dtd">
<svg version="1.1" id="Layer_1" xmlns="http://www.w3.org/2000/svg" xmlns:xlink="http://www.w3.org/1999/xlink" x="0px" y="0px"
	 width="71.027px" height="71.029px" viewBox="0 0 71.027 71.029" enable-background="new 0 0 71.027 71.029" xml:space="preserve">
<g>
	<rect x="0" y="0" fill="none" width="71.027" height="71.029"/>
	<path fill="#1C1918" d="M35.514,0C15.932,0,0,15.931,0,35.515c0,19.582,15.932,35.514,35.514,35.514s35.515-15.932,35.515-35.514
		C71.028,15.931,55.096,0,35.514,0 M35.514,65.692c-16.64,0-30.177-13.537-30.177-30.177c0-16.642,13.537-30.18,30.177-30.18
		c16.641,0,30.177,13.538,30.177,30.18C65.69,52.155,52.154,65.692,35.514,65.692"/>
	<rect x="0" y="0" fill="none" width="71.027" height="71.029"/>
	<path d="M30.068,31.739H29.42v2.778h0.616c1.146,0,1.722-0.508,1.722-1.522C31.758,32.158,31.194,31.739,30.068,31.739"/>
	<rect x="0" y="0" fill="none" width="71.027" height="71.029"/>
	<path fill="#1C1918" d="M35.515,10.097c-13.938,0-25.236,11.299-25.236,25.235c0,13.938,11.299,25.236,25.236,25.236
		S60.749,49.27,60.749,35.333C60.749,21.396,49.451,10.097,35.515,10.097 M34.521,19.766l1.001-3.099l0.985,3.103l3.187,0.018
		l-2.575,1.919l0.969,3.109l-2.58-1.916l-2.588,1.904l0.982-3.104l-2.567-1.932L34.521,19.766z M24.366,31.889h-3.951v1.912h3.643
		v2.638h-3.643v4.975h-3.237V29.252h7.188V31.889z M29.42,36.988v4.426h-3.286V29.252h3.985c3.305,0,4.958,1.198,4.958,3.595
		c0,1.407-0.688,2.497-2.063,3.268l3.544,5.3h-3.727l-2.579-4.426H29.42z M38.086,53.998l-2.579-1.916l-2.588,1.904l0.982-3.104
		l-2.567-1.932l3.187-0.003l1.001-3.098l0.985,3.103l3.187,0.019l-2.575,1.92L38.086,53.998z M44.86,31.889h-3.935v1.912h3.644
		v2.638h-3.644v2.296h3.935v2.679h-7.22V29.252h7.221L44.86,31.889L44.86,31.889z M53.559,33.802v2.638h-3.645v2.296h3.936v2.679
		h-7.222V29.252h7.222v2.638h-3.936v1.912H53.559z"/>
</g>
</svg>
