<?xml version="1.0" encoding="utf-8"?>
<!-- Generator: Adobe Illustrator 16.0.0, SVG Export Plug-In . SVG Version: 6.00 Build 0)  -->
<!DOCTYPE svg PUBLIC "-//W3C//DTD SVG 1.1//EN" "http://www.w3.org/Graphics/SVG/1.1/DTD/svg11.dtd">
<svg version="1.1" id="Layer_1" xmlns="http://www.w3.org/2000/svg" xmlns:xlink="http://www.w3.org/1999/xlink" x="0px" y="0px"
	 width="36px" height="36px" viewBox="0 0 36 36" enable-background="new 0 0 36 36" xml:space="preserve">
<g>
	<rect fill="none" width="36" height="36"/>
	<path d="M29,0H7C3.134,0,0,3.134,0,7v22c0,3.866,3.134,7,7,7h22c3.865,0,7-3.134,7-7V7C36,3.134,32.865,0,29,0 M14.033,24.5
		c0,0.275-0.225,0.5-0.5,0.5h-1.625c-0.277,0-0.5-0.225-0.5-0.5v-13c0-0.276,0.223-0.5,0.5-0.5h1.625c0.275,0,0.5,0.224,0.5,0.5
		V24.5z M20.843,30.998c0,0.552-0.448,1-1,1h-3.5c-0.552,0-1-0.448-1-1v-26c0-0.552,0.448-1,1-1h3.5c0.552,0,1,0.448,1,1V30.998z"/>
</g>
</svg>
