<?xml version="1.0" encoding="utf-8"?>
<!-- Generator: Adobe Illustrator 16.0.0, SVG Export Plug-In . SVG Version: 6.00 Build 0)  -->
<!DOCTYPE svg PUBLIC "-//W3C//DTD SVG 1.1//EN" "http://www.w3.org/Graphics/SVG/1.1/DTD/svg11.dtd">
<svg version="1.1" id="Layer_1" xmlns="http://www.w3.org/2000/svg" xmlns:xlink="http://www.w3.org/1999/xlink" x="0px" y="0px"
	 width="71.027px" height="71.029px" viewBox="0 0 71.027 71.029" enable-background="new 0 0 71.027 71.029" xml:space="preserve">
<g>
	<rect x="0" y="0" fill="none" width="71.027" height="71.029"/>
	<path fill="#1C1918" d="M35.514,0C15.933,0,0,15.932,0,35.516C0,55.098,15.933,71.03,35.514,71.03
		c19.582,0,35.515-15.932,35.515-35.514C71.028,15.932,55.096,0,35.514,0 M35.514,65.691c-16.64,0-30.177-13.537-30.177-30.176
		c0-16.643,13.537-30.181,30.177-30.181c16.641,0,30.177,13.538,30.177,30.181C65.69,52.154,52.154,65.691,35.514,65.691"/>
	<rect x="0" y="0" fill="none" width="71.027" height="71.029"/>
	<path fill="#1C1918" d="M35.514,10.279c-13.938,0-25.235,11.297-25.235,25.234c0,13.937,11.298,25.236,25.235,25.236
		c13.938,0,25.236-11.299,25.236-25.235C60.75,21.577,49.451,10.279,35.514,10.279 M21.64,22.014h19.515v2.75H21.64V22.014z
		 M34.138,49.014H21.64v-2.75h12.498V49.014z M49.389,42.951H21.64v-2.75h27.749V42.951z M49.389,36.889H21.64v-2.75h27.749V36.889z
		 M49.389,30.826H21.64v-2.75h27.749V30.826z"/>
</g>
</svg>
