<?xml version="1.0" encoding="utf-8"?>
<!-- Generator: Adobe Illustrator 16.0.0, SVG Export Plug-In . SVG Version: 6.00 Build 0)  -->
<!DOCTYPE svg PUBLIC "-//W3C//DTD SVG 1.1//EN" "http://www.w3.org/Graphics/SVG/1.1/DTD/svg11.dtd">
<svg version="1.1" id="Layer_1" xmlns="http://www.w3.org/2000/svg" xmlns:xlink="http://www.w3.org/1999/xlink" x="0px" y="0px"
	 width="70.996px" height="70.996px" viewBox="0 0 70.996 70.996" enable-background="new 0 0 70.996 70.996" xml:space="preserve">
<g>
	<rect fill="none" width="70.996" height="70.996"/>
	<path fill="#1C1918" d="M60.61,10.384C46.764-3.461,24.232-3.461,10.385,10.385c-13.846,13.848-13.846,36.379,0,50.225
		c13.847,13.847,36.378,13.847,50.225,0C74.457,46.762,74.457,24.231,60.61,10.384 M14.159,56.835
		c-11.767-11.768-11.767-30.911,0-42.676c11.767-11.766,30.911-11.767,42.678,0c11.767,11.766,11.766,30.91-0.002,42.678
		C45.069,68.605,25.926,68.604,14.159,56.835"/>
	<rect fill="none" width="70.996" height="70.996"/>
	<path fill="#1C1918" d="M53.341,17.653c-9.854-9.855-25.833-9.855-35.688,0C8.929,26.38,7.945,39.897,14.67,49.721l7.601-7.601
		c-3.248-6.078-2.314-13.803,2.811-18.928c3.958-3.958,9.467-5.412,14.57-4.376L29.16,29.309l4.098,8.428l8.428,4.099l10.489-10.491
		c1.037,5.104-0.418,10.612-4.375,14.571c-5.125,5.125-12.849,6.059-18.927,2.811l-7.601,7.602
		c9.826,6.725,23.343,5.74,32.069-2.984C63.197,43.487,63.197,27.508,53.341,17.653"/>
</g>
</svg>
