<?xml version="1.0" encoding="utf-8"?>
<!-- Generator: Adobe Illustrator 16.0.0, SVG Export Plug-In . SVG Version: 6.00 Build 0)  -->
<!DOCTYPE svg PUBLIC "-//W3C//DTD SVG 1.1//EN" "http://www.w3.org/Graphics/SVG/1.1/DTD/svg11.dtd">
<svg version="1.1" id="Layer_1" xmlns="http://www.w3.org/2000/svg" xmlns:xlink="http://www.w3.org/1999/xlink" x="0px" y="0px"
	 width="71.027px" height="71.029px" viewBox="0 0 71.027 71.029" enable-background="new 0 0 71.027 71.029" xml:space="preserve">
<g>
	<rect x="0" y="0" fill="none" width="71.027" height="71.029"/>
	<path fill="#1C1918" d="M35.514,0C15.933,0,0,15.931,0,35.515c0,19.582,15.933,35.514,35.514,35.514
		c19.582,0,35.515-15.932,35.515-35.514C71.028,15.931,55.096,0,35.514,0 M35.514,65.692c-16.64,0-30.177-13.537-30.177-30.177
		c0-16.642,13.537-30.18,30.177-30.18c16.641,0,30.177,13.538,30.177,30.18C65.69,52.155,52.154,65.692,35.514,65.692"/>
	<rect x="0" y="0" fill="none" width="71.027" height="71.029"/>
	<path fill="#1C1918" d="M35.514,10.279c-13.937,0-25.235,11.298-25.235,25.235s11.3,25.235,25.235,25.235
		c13.938,0,25.236-11.298,25.236-25.235S49.451,10.279,35.514,10.279 M29.931,50.733l-3.986-3.053l-1.326-1.019l-6.871-5.261
		l4.069-5.315l6.869,5.264l16.378-21.054l5.548,4.223L29.931,50.733z"/>
</g>
</svg>
