<?xml version="1.0" encoding="utf-8"?>
<!-- Generator: Adobe Illustrator 16.0.0, SVG Export Plug-In . SVG Version: 6.00 Build 0)  -->
<!DOCTYPE svg PUBLIC "-//W3C//DTD SVG 1.1//EN" "http://www.w3.org/Graphics/SVG/1.1/DTD/svg11.dtd">
<svg version="1.1" id="Layer_1" xmlns="http://www.w3.org/2000/svg" xmlns:xlink="http://www.w3.org/1999/xlink" x="0px" y="0px"
	 width="36px" height="36px" viewBox="0 0 36 36" enable-background="new 0 0 36 36" xml:space="preserve">
<g>
	<rect fill="none" width="36" height="36"/>
	<path d="M29,0H7C3.134,0,0,3.134,0,7v22c0,3.866,3.134,7,7,7h22c3.866,0,7-3.134,7-7V7C36,3.134,32.866,0,29,0 M12.437,11.988
		l2.782-1.986h2.463v11.122h-2.463v-8.626l-2.782,1.986V11.988z M26,25.002c0,0.553-0.448,1-1,1H10v-2.625h13.375V10.002H26V25.002z
		"/>
</g>
</svg>
