<?xml version="1.0" encoding="utf-8"?>
<!-- Generator: Adobe Illustrator 16.0.0, SVG Export Plug-In . SVG Version: 6.00 Build 0)  -->
<!DOCTYPE svg PUBLIC "-//W3C//DTD SVG 1.1//EN" "http://www.w3.org/Graphics/SVG/1.1/DTD/svg11.dtd">
<svg version="1.1" id="Layer_1" xmlns="http://www.w3.org/2000/svg" xmlns:xlink="http://www.w3.org/1999/xlink" x="0px" y="0px"
	 width="71.027px" height="71.029px" viewBox="0 0 71.027 71.029" enable-background="new 0 0 71.027 71.029" xml:space="preserve">
<g>
	<rect x="0" y="0" fill="none" width="71.027" height="71.029"/>
	<path fill="#1C1918" d="M35.514,0C15.933,0,0,15.931,0,35.515c0,19.582,15.933,35.514,35.514,35.514
		c19.582,0,35.515-15.932,35.515-35.514C71.028,15.931,55.096,0,35.514,0 M35.514,65.692c-16.64,0-30.177-13.537-30.177-30.177
		c0-16.642,13.537-30.18,30.177-30.18c16.641,0,30.177,13.538,30.177,30.18C65.69,52.155,52.154,65.692,35.514,65.692"/>
	<rect x="0" y="0" fill="none" width="71.027" height="71.029"/>
	<path fill="#1C1918" d="M35.514,10.279c-13.937,0-25.235,11.298-25.235,25.236c0,13.937,11.3,25.234,25.235,25.234
		c13.938,0,25.236-11.298,25.236-25.234C60.75,21.577,49.451,10.279,35.514,10.279 M35.514,54.771
		c-16.06-6.431-16.176-31.839-16.176-31.839c10.283-0.273,16.176-6.675,16.176-6.675s5.895,6.401,16.176,6.675
		C51.689,22.932,51.574,48.341,35.514,54.771"/>
	<rect x="0" y="0" fill="none" width="71.027" height="71.029"/>
	<polygon points="30.792,26.596 30.792,30.067 33.505,30.067 33.505,40.997 30.75,40.997 30.75,44.432 40.278,44.432 40.278,40.997 
		37.744,40.997 37.744,26.596 	"/>
</g>
</svg>
