<?xml version="1.0" encoding="utf-8"?>
<!-- Generator: Adobe Illustrator 16.0.0, SVG Export Plug-In . SVG Version: 6.00 Build 0)  -->
<!DOCTYPE svg PUBLIC "-//W3C//DTD SVG 1.1//EN" "http://www.w3.org/Graphics/SVG/1.1/DTD/svg11.dtd">
<svg version="1.1" id="Layer_1" xmlns="http://www.w3.org/2000/svg" xmlns:xlink="http://www.w3.org/1999/xlink" x="0px" y="0px"
	 width="71.027px" height="71.029px" viewBox="0 0 71.027 71.029" enable-background="new 0 0 71.027 71.029" xml:space="preserve">
<g>
	<rect x="0" y="0" fill="none" width="71.027" height="71.029"/>
	<path fill="#1C1918" d="M35.514,0.001C15.932,0.001,0,15.932,0,35.516C0,55.098,15.932,71.03,35.514,71.03
		s35.514-15.932,35.514-35.514C71.027,15.932,55.096,0.001,35.514,0.001 M35.514,65.692c-16.641,0-30.178-13.537-30.178-30.177
		c0-16.642,13.537-30.18,30.178-30.18s30.178,13.538,30.178,30.18C65.691,52.155,52.154,65.692,35.514,65.692"/>
	<rect x="0" y="0" fill="none" width="71.027" height="71.029"/>
	<path fill="#1C1918" d="M33.893,41.963c-0.459,1.948-1.336,6.198-1.336,6.198h2.537h0.838h2.539c0,0-0.877-4.251-1.337-6.199
		c0.946-0.558,1.589-1.583,1.589-2.764c0-1.771-1.437-3.208-3.211-3.208c-1.771,0-3.207,1.437-3.207,3.208
		C32.305,40.38,32.943,41.405,33.893,41.963"/>
	<rect x="0" y="0" fill="none" width="71.027" height="71.029"/>
	<path fill="#1C1918" d="M35.514,10.279c-13.938,0-25.236,11.298-25.236,25.235c0,13.937,11.3,25.234,25.236,25.234
		c13.938,0,25.235-11.298,25.235-25.234C60.75,21.577,49.451,10.279,35.514,10.279 M26.826,23.142c0-4.411,3.588-8,8-8h1.375
		c4.411,0,8,3.589,8,8v6.25h-4v-6.25c0-2.206-1.795-4-4-4h-1.375c-2.205,0-4,1.794-4,4v6.25h-4V23.142z M48.201,52.889H22.826
		V31.264h25.375V52.889z"/>
</g>
</svg>
