<?xml version="1.0" encoding="utf-8"?>
<!-- Generator: Adobe Illustrator 16.0.0, SVG Export Plug-In . SVG Version: 6.00 Build 0)  -->
<!DOCTYPE svg PUBLIC "-//W3C//DTD SVG 1.1//EN" "http://www.w3.org/Graphics/SVG/1.1/DTD/svg11.dtd">
<svg version="1.1" id="Layer_1" xmlns="http://www.w3.org/2000/svg" xmlns:xlink="http://www.w3.org/1999/xlink" x="0px" y="0px"
	 width="71.027px" height="71.029px" viewBox="0 0 71.027 71.029" enable-background="new 0 0 71.027 71.029" xml:space="preserve">
<g>
	<rect x="0" y="0" fill="none" width="71.027" height="71.029"/>
	<path fill="#1C1918" d="M35.514,0C15.932,0,0,15.931,0,35.515c0,19.582,15.932,35.514,35.514,35.514s35.515-15.932,35.515-35.514
		C71.028,15.931,55.096,0,35.514,0 M35.514,65.692c-16.64,0-30.177-13.537-30.177-30.177c0-16.642,13.537-30.18,30.177-30.18
		c16.641,0,30.177,13.538,30.177,30.18C65.69,52.155,52.154,65.692,35.514,65.692"/>
	<rect x="0" y="0" fill="none" width="71.027" height="71.029"/>
	<path fill="#1C1918" d="M26.787,41.231l4.614-14.107h4.556l1.218,3.721l14.605-14.606c-4.394-3.712-10.063-5.959-16.268-5.959
		c-13.938,0-25.235,11.299-25.235,25.236c0,6.201,2.246,11.874,5.958,16.269L26.787,41.231z M14.285,27.124h13.209v3.237h-4.746
		v13.545h-3.718V30.36h-4.745V27.124z"/>
	<rect x="0" y="0" fill="none" width="71.027" height="71.029"/>
	<polygon fill="#1C1918" points="34.296,33.722 33.488,31.08 31.97,36.048 	"/>
	<rect x="0" y="0" fill="none" width="71.027" height="71.029"/>
	<path fill="#1C1918" d="M54.791,19.247l-8.517,8.517l2.893,4.706l3.381-5.346h4.195l-5.49,8.295l5.49,8.487h-4.436L49,38.559
		l-3.356,5.347h-4.195H37.42l-1.079-3.548H33.68L19.246,54.792c4.395,3.712,10.064,5.958,16.269,5.958
		c13.938,0,25.234-11.298,25.234-25.234C60.749,29.312,58.503,23.641,54.791,19.247"/>
	<rect x="0" y="0" fill="none" width="71.027" height="71.029"/>
	<polygon fill="#1C1918" points="43.595,30.443 38.658,35.38 41.448,43.905 46.938,35.61 	"/>
</g>
</svg>
