<?xml version="1.0" encoding="utf-8"?>
<!-- Generator: Adobe Illustrator 16.0.0, SVG Export Plug-In . SVG Version: 6.00 Build 0)  -->
<!DOCTYPE svg PUBLIC "-//W3C//DTD SVG 1.1//EN" "http://www.w3.org/Graphics/SVG/1.1/DTD/svg11.dtd">
<svg version="1.1" id="Layer_1" xmlns="http://www.w3.org/2000/svg" xmlns:xlink="http://www.w3.org/1999/xlink" x="0px" y="0px"
	 width="36px" height="36px" viewBox="0 0 36 36" enable-background="new 0 0 36 36" xml:space="preserve">
<g>
	<rect fill="none" width="36" height="36"/>
	<path d="M29,0H7C3.134,0,0,3.134,0,7v22c0,3.866,3.134,7,7,7h22c3.866,0,7-3.134,7-7V7C36,3.134,32.866,0,29,0 M12.502,17.63h2.465
		v0.383c0,0.84,0.523,1.284,1.508,1.284c0.953,0,1.4-0.523,1.4-1.317c0-0.747-0.512-1.193-1.336-1.193h-0.621v-2.144h0.621
		c0.873,0,1.336-0.509,1.336-1.176c0-0.795-0.447-1.319-1.4-1.319c-0.985,0-1.508,0.444-1.508,1.288v0.38h-2.465v-0.635
		c0-1.891,1.398-3.179,3.973-3.179c2.542,0,3.939,1.288,3.939,3.147c0,1.271-0.602,2.129-1.697,2.575
		c1.096,0.445,1.697,1.303,1.697,2.575c0,1.855-1.396,3.143-3.939,3.143c-2.575,0-3.973-1.286-3.973-3.175V17.63z M26.002,25.002
		c0,0.553-0.447,1-1,1h-15v-2.625h13.375V10.002h2.625V25.002z"/>
</g>
</svg>
