<?xml version="1.0" encoding="utf-8"?>
<!-- Generator: Adobe Illustrator 16.0.0, SVG Export Plug-In . SVG Version: 6.00 Build 0)  -->
<!DOCTYPE svg PUBLIC "-//W3C//DTD SVG 1.1//EN" "http://www.w3.org/Graphics/SVG/1.1/DTD/svg11.dtd">
<svg version="1.1" id="Layer_1" xmlns="http://www.w3.org/2000/svg" xmlns:xlink="http://www.w3.org/1999/xlink" x="0px" y="0px"
	 width="36px" height="36px" viewBox="0 0 36 36" enable-background="new 0 0 36 36" xml:space="preserve">
<g>
	<rect fill="none" width="36" height="36"/>
	<path d="M29,0H7C3.134,0,0,3.134,0,7v22c0,3.866,3.134,7,7,7h22c3.866,0,7-3.134,7-7V7C36,3.134,32.866,0,29,0 M12.502,19.141
		l4.608-4.101c0.572-0.493,0.843-1.08,0.843-1.557c0-0.843-0.589-1.337-1.478-1.337c-0.922,0-1.509,0.494-1.509,1.463v0.683h-2.464
		v-0.683c0-2.384,1.558-3.606,3.973-3.606c2.384,0,3.938,1.27,3.938,3.415c0,1.272-0.665,2.241-1.601,3.052l-3.084,2.671h4.685
		v2.144h-7.911V19.141z M26.002,25.002c0,0.553-0.447,1-1,1h-15v-2.625h13.375V10.002h2.625V25.002z"/>
</g>
</svg>
