<?xml version="1.0" encoding="utf-8"?>
<!-- Generator: Adobe Illustrator 16.0.0, SVG Export Plug-In . SVG Version: 6.00 Build 0)  -->
<!DOCTYPE svg PUBLIC "-//W3C//DTD SVG 1.1//EN" "http://www.w3.org/Graphics/SVG/1.1/DTD/svg11.dtd">
<svg version="1.1" id="Layer_1" xmlns="http://www.w3.org/2000/svg" xmlns:xlink="http://www.w3.org/1999/xlink" x="0px" y="0px"
	 width="36px" height="36px" viewBox="0 0 36 36" enable-background="new 0 0 36 36" xml:space="preserve">
<g>
	<rect fill="none" width="36" height="36"/>
	<path d="M29,0H7C3.135,0,0,3.134,0,7v22c0,3.866,3.135,7,7,7h22c3.866,0,7-3.134,7-7V7C36,3.134,32.866,0,29,0 M15.271,31.003
		h-2.634V20.018h2.634V31.003z M23.389,31.003h-6.496V20.018h6.496V31.003z M26.182,16.928c0,0.597-0.483,1.08-1.08,1.08h-14.2
		c-0.596,0-1.079-0.483-1.079-1.08V0h2.626l0.001,15.373h11.106L23.555,0h2.627V16.928z"/>
</g>
</svg>
