<?xml version="1.0" standalone="no"?>
<!DOCTYPE svg PUBLIC "-//W3C//DTD SVG 1.1//EN" "http://www.w3.org/Graphics/SVG/1.1/DTD/svg11.dtd" >
<svg xmlns="http://www.w3.org/2000/svg">
<metadata></metadata>
<defs>
<font id="nudistalight" horiz-adv-x="1089" >
<font-face units-per-em="2048" ascent="1638" descent="-410" />
<missing-glyph horiz-adv-x="614" />
<glyph unicode="&#xfb01;" horiz-adv-x="1179" d="M41 956v78h246v103q0 69 3.5 118t15 98t31 80.5t52.5 57t79 36t111 9.5t148 -16v-74q-76 12 -131 12.5t-94 -12.5t-63.5 -34.5t-38 -61t-18.5 -84.5t-5 -111v-121h649v-1034h-88v956h-561v-956h-90v956h-246zM938 1219v196h88v-196h-88z" />
<glyph unicode="&#xfb02;" horiz-adv-x="1179" d="M41 956v78h246v103q0 57 3.5 99t14.5 86.5t30 75t52 59.5t79 46t111.5 27t149.5 10q123 0 299 -24v-1516h-88v1446q-104 14 -213 14t-178.5 -18t-106.5 -59.5t-50 -94t-13 -135.5v-119h350v-78h-350v-956h-90v956h-246z" />
<glyph horiz-adv-x="2048" />
<glyph horiz-adv-x="2048" />
<glyph unicode="&#xd;" horiz-adv-x="2048" />
<glyph unicode=" "  horiz-adv-x="614" />
<glyph unicode="&#x09;" horiz-adv-x="614" />
<glyph unicode="&#xa0;" horiz-adv-x="614" />
<glyph unicode="!" horiz-adv-x="479" d="M195 0v197h90v-197h-90zM195 375v1059h90v-1059h-90z" />
<glyph unicode="&#x22;" horiz-adv-x="620" d="M154 1434h100l-10 -514h-80zM367 1434h100l-10 -514h-80z" />
<glyph unicode="#" horiz-adv-x="1497" d="M53 434v74h334l133 418h-313v75h338l139 433h80l-139 -433h428l139 433h82l-139 -433h307v-75h-332l-133 -418h311v-74h-336l-137 -434h-82l139 434h-428l-139 -434h-80l137 434h-309zM467 508h430l133 418h-430z" />
<glyph unicode="$" horiz-adv-x="1292" d="M143 410v10h95v-10q0 -170 105 -258.5t302 -88.5q199 0 304.5 78t105.5 230q0 227 -262 280l-293 58q-340 66 -340 364q0 174 113.5 271.5t330.5 107.5v227h88v-227q218 -9 330.5 -117t112.5 -311v-10h-95v10q0 172 -99 260t-292 88t-293 -76t-100 -217q0 -229 262 -282 l291 -56q340 -68 340 -364q0 -184 -119 -285t-338 -110v-228h-88v228q-222 9 -341.5 117t-119.5 311z" />
<glyph unicode="%" horiz-adv-x="1675" d="M154 907v299q0 113 67.5 175.5t188.5 62.5q119 0 186.5 -62.5t67.5 -175.5v-299q0 -113 -67.5 -175t-186.5 -62q-121 0 -188.5 62t-67.5 175zM227 907q0 -82 48 -128t135 -46q86 0 133 46t47 128v299q0 82 -47 128t-133 46q-87 0 -135 -46t-48 -128v-299zM303 0l987 1434 h84l-989 -1434h-82zM1012 227v299q0 113 67.5 175.5t188.5 62.5q119 0 186.5 -62.5t67.5 -175.5v-299q0 -113 -67.5 -175t-186.5 -62q-121 0 -188.5 62t-67.5 175zM1085 227q0 -82 48.5 -128t134.5 -46t134 46t48 128v299q0 82 -48 128t-134 46t-134.5 -46t-48.5 -128v-299z " />
<glyph unicode="&#x26;" horiz-adv-x="1327" d="M150 354q0 137 70 230t198 133q-120 38 -184 130t-64 224q0 181 119 282t336 101t336.5 -100.5t119.5 -274.5v-35h-94v27q0 141 -94 221t-266 80q-173 0 -267 -81t-94 -226q0 -137 92 -221t256 -84h713v-84h-246v-676h-73l-15 182q-58 -94 -165.5 -148t-247.5 -54 q-210 0 -320 99.5t-110 274.5zM246 362q0 -146 89 -222.5t263 -76.5q173 0 281 95.5t108 236.5v281h-377q-167 0 -265.5 -83.5t-98.5 -230.5z" />
<glyph unicode="'" horiz-adv-x="407" d="M154 1434h100l-10 -514h-80z" />
<glyph unicode="(" horiz-adv-x="573" d="M119 715q0 555 319 948h94q-325 -396 -325 -948q0 -279 85.5 -518t239.5 -426h-94q-319 390 -319 944z" />
<glyph unicode=")" horiz-adv-x="573" d="M41 -229q326 400 326 948q0 279 -86 517.5t-240 426.5h94q322 -390 322 -944q0 -555 -322 -948h-94z" />
<glyph unicode="*" horiz-adv-x="927" d="M61 1229l21 65l354 -123l-6 379h68l-6 -376l354 122l20 -67l-356 -109l225 -299l-55 -41l-217 310l-215 -310l-55 41l225 299z" />
<glyph unicode="+" horiz-adv-x="1048" d="M61 680v78h420v434h82v-434h424v-78h-424v-432h-82v432h-420z" />
<glyph unicode="," horiz-adv-x="407" d="M139 -236l31 443h98l-61 -443h-68z" />
<glyph unicode="-" horiz-adv-x="495" d="M61 479v78h373v-78h-373z" />
<glyph unicode="." horiz-adv-x="407" d="M154 0v207h100v-207h-100z" />
<glyph unicode="/" horiz-adv-x="595" d="M-55 -229l626 1892h80l-626 -1892h-80z" />
<glyph unicode="0" horiz-adv-x="1255" d="M154 422v590q0 210 125 326t350 116q223 0 348 -116t125 -326v-590q0 -210 -125 -326t-350 -116q-223 0 -348 116t-125 326zM248 422q0 -169 99.5 -264t279.5 -95q181 0 281 95t100 264v590q0 169 -100 264.5t-279 95.5q-181 0 -281 -95.5t-100 -264.5v-590z" />
<glyph unicode="1" horiz-adv-x="714" d="M78 1057v98l389 279h94v-1434h-94v1337z" />
<glyph unicode="2" horiz-adv-x="1214" d="M154 0v84l653 676q154 160 154 323q0 137 -96 213t-257 76q-172 0 -266 -84t-94 -244v-65h-94v65q0 200 119 305t335 105q204 0 325.5 -96.5t121.5 -272.5q0 -197 -183 -380l-593 -621h813v-84h-938z" />
<glyph unicode="3" horiz-adv-x="1216" d="M139 356v39h94v-30q0 -141 96 -221.5t273 -80.5q174 0 269.5 82t95.5 228q0 145 -97 224t-266 79h-119v84h119q164 0 255 82.5t91 220.5q0 144 -93 226.5t-263 82.5q-172 0 -266.5 -80t-94.5 -221v-31h-94v39q0 174 119 274.5t336 100.5t336 -101.5t119 -279.5 q0 -129 -64.5 -221t-185.5 -133q128 -36 196 -126t68 -231q0 -179 -121 -280.5t-340 -101.5q-220 0 -341.5 101t-121.5 275z" />
<glyph unicode="4" horiz-adv-x="1130" d="M61 356v84l510 994h101l-512 -994h542v373h95v-373h272v-84h-272v-356h-95v356h-641z" />
<glyph unicode="5" horiz-adv-x="1216" d="M154 371h94q0 -147 94.5 -227.5t265.5 -80.5q172 0 266.5 98.5t94.5 284.5t-94.5 284.5t-266.5 98.5q-258 0 -342 -186h-92l62 791h761v-82h-684l-51 -586q123 141 354 141q209 0 328 -119t119 -344q0 -223 -120 -343.5t-335 -120.5q-214 0 -334 102.5t-120 288.5z" />
<glyph unicode="6" horiz-adv-x="1232" d="M154 412v649q0 182 121 287.5t341 105.5q219 0 341 -103t122 -278v-29h-96v21q0 143 -96 225t-271 82q-174 0 -271 -83t-97 -228v-391q115 176 379 176q215 0 333.5 -114t118.5 -320q0 -200 -123.5 -316t-339.5 -116t-339 116t-123 316zM248 414q0 -163 97.5 -257 t270.5 -94t270 94t97 259q0 166 -96.5 259t-270.5 93t-271 -94t-97 -260z" />
<glyph unicode="7" horiz-adv-x="1071" d="M68 1352v82h938v-72l-631 -1362h-105l635 1352h-837z" />
<glyph unicode="8" horiz-adv-x="1243" d="M143 369q0 131 67 223t193 133q-114 41 -173.5 129.5t-59.5 216.5q0 178 118.5 280.5t332.5 102.5q215 0 333.5 -101.5t118.5 -281.5q0 -126 -60.5 -215.5t-174.5 -130.5q128 -41 195 -132.5t67 -223.5q0 -182 -124.5 -285.5t-352.5 -103.5q-229 0 -354.5 103t-125.5 286 zM238 373q0 -144 101 -227t284 -83q182 0 281.5 83t99.5 227q0 147 -100 229t-283 82t-283 -82.5t-100 -228.5zM264 1067q0 -142 94 -223.5t263 -81.5q170 0 264 81.5t94 223.5t-94 223.5t-264 81.5q-169 0 -263 -81.5t-94 -223.5z" />
<glyph unicode="9" horiz-adv-x="1232" d="M154 360v29h96v-20q0 -143 95.5 -225.5t270.5 -82.5q174 0 271.5 83.5t97.5 228.5v391q-115 -176 -379 -176q-215 0 -333.5 114t-118.5 320q0 200 123 316t339 116t339.5 -116t123.5 -316v-649q0 -182 -121.5 -287.5t-341.5 -105.5q-219 0 -340.5 102.5t-121.5 277.5z M250 1018q0 -166 96 -259t270 -93t271.5 94t97.5 260q0 163 -98 256.5t-271 93.5t-269.5 -93.5t-96.5 -258.5z" />
<glyph unicode=":" horiz-adv-x="407" d="M154 0v207h100v-207h-100zM154 858v207h100v-207h-100z" />
<glyph unicode=";" horiz-adv-x="407" d="M139 -236l31 443h98l-61 -443h-68zM154 858v207h100v-207h-100z" />
<glyph unicode="&#x3c;" horiz-adv-x="1048" d="M61 680v80l926 370v-86l-827 -325l827 -326v-86z" />
<glyph unicode="=" horiz-adv-x="1048" d="M61 424v78h926v-78h-926zM61 936v78h926v-78h-926z" />
<glyph unicode="&#x3e;" horiz-adv-x="1048" d="M61 307v86l830 326l-830 325v86l926 -370v-80z" />
<glyph unicode="?" horiz-adv-x="1271" d="M154 1014v53q0 180 128 283.5t353 103.5q227 0 355 -103t128 -284q0 -172 -116 -274t-322 -111v-307h-90v383h45q187 0 290 82t103 227t-103 227t-290 82q-185 0 -288 -82t-103 -227v-53h-90zM590 0v197h90v-197h-90z" />
<glyph unicode="@" horiz-adv-x="2127" d="M102 311q0 201 57 381t161 317.5t244 238.5t311 153.5t356 52.5q372 0 583 -196.5t211 -536.5q0 -79 -12.5 -161.5t-36 -163.5t-62 -152t-87.5 -126t-115 -86.5t-141 -31.5q-91 0 -149 46t-72 128q-65 -94 -168.5 -144t-233.5 -50q-181 0 -267.5 112.5t-53.5 294.5 l51 295q32 181 148 277t298 96q125 0 211.5 -46t124.5 -132l39 157h72l-133 -753q-15 -91 24.5 -145t122.5 -54q77 0 140.5 51.5t101 126.5t63 166.5t35.5 165.5t10 129q0 302 -187.5 477.5t-516.5 175.5q-213 0 -403.5 -77.5t-330.5 -214.5t-222 -337t-82 -434 q0 -303 187.5 -478t518.5 -175q257 0 477 111l31 -78q-239 -115 -508 -115q-373 0 -585 197t-212 538zM717 383q-27 -142 42.5 -234t209.5 -92q154 0 261.5 86.5t133.5 235.5l51 285q26 144 -54.5 228.5t-234.5 84.5q-147 0 -240 -76t-116 -215z" />
<glyph unicode="A" horiz-adv-x="1234" d="M0 0l559 1434h117l559 -1434h-102l-158 399h-723l-156 -399h-96zM279 483h671l-336 850z" />
<glyph unicode="B" horiz-adv-x="1241" d="M154 0v1434h577q190 0 290.5 -95t100.5 -278q0 -254 -194 -338q231 -69 231 -350q0 -184 -101 -278.5t-292 -94.5h-612zM248 84h504q153 0 231 75t78 220t-77.5 221t-229.5 76h-506v-592zM248 760h469q309 0 309 295q0 145 -78.5 221t-230.5 76h-469v-592z" />
<glyph unicode="C" horiz-adv-x="1323" d="M133 492v452q0 242 143 376t398 134q245 0 382.5 -119t137.5 -331v-5h-94v5q0 171 -113 269.5t-313 98.5q-211 0 -329 -113.5t-118 -314.5v-452q0 -202 118 -315.5t329 -113.5q200 0 313 98t113 269v6h94v-6q0 -212 -137.5 -331t-382.5 -119q-255 0 -398 134.5 t-143 377.5z" />
<glyph unicode="D" horiz-adv-x="1333" d="M154 0v1434h485q257 0 401 -131.5t144 -368.5v-434q0 -237 -144 -368.5t-403 -131.5h-483zM248 84h389q215 0 334 109.5t119 306.5v434q0 197 -119 307.5t-332 110.5h-391v-1268z" />
<glyph unicode="E" horiz-adv-x="1122" d="M154 0v1434h886v-82h-792v-592h690v-84h-690v-592h792v-84h-886z" />
<glyph unicode="F" horiz-adv-x="999" d="M154 0v1434h845v-82h-751v-623h649v-84h-649v-645h-94z" />
<glyph unicode="G" horiz-adv-x="1331" d="M133 492v448q0 246 143 380t398 134q247 0 383.5 -115.5t136.5 -328.5h-94q0 171 -111.5 266.5t-314.5 95.5q-211 0 -329 -113.5t-118 -318.5v-448q0 -201 118.5 -315t328.5 -114q199 0 312.5 98t113.5 269v182h-527v82h621v-694h-74l-10 184q-125 -204 -448 -204 q-252 0 -390.5 134t-138.5 378z" />
<glyph unicode="H" horiz-adv-x="1337" d="M154 0v1434h94v-674h842v674h94v-1434h-94v676h-842v-676h-94z" />
<glyph unicode="I" horiz-adv-x="401" d="M154 0v1434h94v-1434h-94z" />
<glyph unicode="J" horiz-adv-x="1183" d="M61 432v12h95v-12q0 -175 102.5 -272t286.5 -97q186 0 288.5 97t102.5 272v1002h94v-1002q0 -215 -128 -333.5t-357 -118.5q-228 0 -356 118.5t-128 333.5z" />
<glyph unicode="K" horiz-adv-x="1128" d="M154 0v1434h94v-785l723 785h116l-571 -623l619 -811h-117l-563 737l-207 -219v-518h-94z" />
<glyph unicode="L" horiz-adv-x="1081" d="M154 0v1434h94v-1350h792v-84h-886z" />
<glyph unicode="M" horiz-adv-x="1503" d="M154 0v1434h92l506 -945l505 945h93v-1434h-95v1245l-503 -936l-504 936v-1245h-94z" />
<glyph unicode="N" horiz-adv-x="1337" d="M154 0v1434h90l846 -1260v1260h94v-1434h-88l-848 1260v-1260h-94z" />
<glyph unicode="O" horiz-adv-x="1357" d="M133 492v452q0 242 144.5 376t402.5 134q257 0 401 -134t144 -376v-452q0 -244 -144 -378t-403 -134q-256 0 -400.5 134.5t-144.5 377.5zM227 492q0 -202 119.5 -315.5t331.5 -113.5q215 0 333.5 113t118.5 316v452q0 202 -118.5 315t-331.5 113q-214 0 -333.5 -113.5 t-119.5 -314.5v-452z" />
<glyph unicode="P" horiz-adv-x="1179" d="M154 0v1434h514q206 0 323 -107.5t117 -322.5q0 -214 -116.5 -322.5t-323.5 -108.5h-420v-573h-94zM248 657h416q163 0 254.5 86.5t91.5 260.5q0 175 -91 261.5t-255 86.5h-416v-695z" />
<glyph unicode="Q" horiz-adv-x="1327" d="M133 492v452q0 242 144.5 376t402.5 134q257 0 401 -134t144 -376v-452q0 -212 -109.5 -341.5t-310.5 -160.5l336 -332l-68 -68l-387 390h-8q-256 0 -400.5 134.5t-144.5 377.5zM227 492q0 -202 119.5 -315.5t331.5 -113.5q215 0 333.5 113t118.5 316v452 q0 202 -118.5 315t-331.5 113q-214 0 -333.5 -113.5t-119.5 -314.5v-452z" />
<glyph unicode="R" horiz-adv-x="1255" d="M154 0v1434h548q208 0 324.5 -107.5t116.5 -322.5q0 -167 -72.5 -270.5t-204.5 -139.5l283 -594h-109l-268 575q-23 -2 -70 -2h-454v-573h-94zM248 657h452q163 0 255 86.5t92 260.5q0 175 -91.5 261.5t-255.5 86.5h-452v-695z" />
<glyph unicode="S" horiz-adv-x="1292" d="M143 410v10h95v-10q0 -170 105 -258.5t302 -88.5q198 0 302 77.5t104 230.5q0 229 -263 282l-288 56q-340 66 -340 364q0 185 125.5 283t363.5 98t362 -108t124 -322v-10h-95v10q0 172 -99 260t-292 88t-292 -76t-99 -217q0 -232 262 -282l289 -56q340 -68 340 -364 q0 -194 -131.5 -295.5t-372.5 -101.5q-240 0 -371 109t-131 321z" />
<glyph unicode="T" horiz-adv-x="1159" d="M27 1352v82h1108v-82h-508v-1352h-95v1352h-505z" />
<glyph unicode="U" horiz-adv-x="1333" d="M152 461v973h94v-973q0 -188 111 -293t309 -105q199 0 310 105t111 293v973h95v-973q0 -228 -136 -354.5t-380 -126.5q-242 0 -378 126.5t-136 354.5z" />
<glyph unicode="V" horiz-adv-x="1230" d="M0 1434h102l516 -1317l517 1317h96l-561 -1434h-111z" />
<glyph unicode="W" horiz-adv-x="1746" d="M-2 1434h96l367 -1313l368 1313h93l366 -1313l367 1313h94l-406 -1434h-108l-363 1262l-360 -1262h-109z" />
<glyph unicode="X" horiz-adv-x="1193" d="M61 0l480 715l-480 719h113l424 -637l428 637h107l-482 -715l482 -719h-113l-426 639l-424 -639h-109z" />
<glyph unicode="Y" horiz-adv-x="1193" d="M8 1434h115l475 -768l479 768h107l-539 -865v-569h-96v569z" />
<glyph unicode="Z" horiz-adv-x="1169" d="M78 0v84l903 1268h-903v82h1014v-82l-904 -1268h904v-84h-1014z" />
<glyph unicode="[" horiz-adv-x="583" d="M154 -229v1892h389v-82h-295v-1728h295v-82h-389z" />
<glyph unicode="\" horiz-adv-x="595" d="M-55 1663h82l626 -1892h-82z" />
<glyph unicode="]" horiz-adv-x="583" d="M41 -147h295v1728h-295v82h389v-1892h-389v82z" />
<glyph unicode="^" horiz-adv-x="1005" d="M61 766l396 963h94l393 -963h-94l-348 866l-348 -866h-93z" />
<glyph unicode="_" horiz-adv-x="1044" d="M10 -20h1024v-68h-1024v68z" />
<glyph unicode="`" horiz-adv-x="403" d="M39 1516h96l227 -328h-77z" />
<glyph unicode="a" horiz-adv-x="1071" d="M92 287q0 155 101 230t290 75q243 0 346 -127v242q0 135 -80 204.5t-221 69.5q-145 0 -220 -59.5t-75 -188.5h-90q0 322 385 322q185 0 288.5 -89t103.5 -264v-702h-72l-10 123q-103 -143 -355 -143q-391 0 -391 307zM182 289q0 -232 316 -232q150 0 240.5 61t90.5 171 q0 108 -91 169.5t-240 61.5q-316 0 -316 -231z" />
<glyph unicode="b" horiz-adv-x="1112" d="M154 0v1516h90v-617q51 75 139.5 115.5t204.5 40.5q187 0 290 -98t103 -279v-322q0 -181 -103.5 -278.5t-291.5 -97.5q-245 0 -348 161l-13 -141h-71zM244 367q0 -145 89 -227.5t242 -82.5q147 0 231.5 77t84.5 216v334q0 139 -84.5 216t-231.5 77q-153 0 -242 -82 t-89 -227v-301z" />
<glyph unicode="c" horiz-adv-x="1069" d="M131 360v314q0 181 110.5 281t309.5 100q190 0 298.5 -93t108.5 -253v-2h-90v8q0 120 -84 191t-233 71q-156 0 -243 -78.5t-87 -218.5v-324q0 -141 87 -220t243 -79q149 0 233 71t84 191v9h90v-2q0 -160 -108.5 -253t-298.5 -93q-199 0 -309.5 99.5t-110.5 280.5z" />
<glyph unicode="d" horiz-adv-x="1112" d="M131 356v322q0 181 103 279t290 98q236 0 344 -154v615h90v-1516h-71l-13 147q-104 -167 -350 -167q-187 0 -290 97.5t-103 278.5zM221 350q0 -139 84.5 -216t231.5 -77q152 0 241.5 82.5t89.5 227.5v301q0 145 -89 227t-242 82q-147 0 -231.5 -77t-84.5 -214v-336z" />
<glyph unicode="e" d="M131 360v318q0 182 111 279.5t303 97.5q190 0 301.5 -97.5t111.5 -279.5v-182h-737v-142q0 -139 86 -218t244 -79q147 0 230.5 68.5t86.5 185.5h90q-5 -154 -112.5 -242.5t-294.5 -88.5q-198 0 -309 99t-111 281zM221 573h647v111q0 142 -86.5 217.5t-236.5 75.5 q-151 0 -237.5 -75.5t-86.5 -217.5v-111z" />
<glyph unicode="f" horiz-adv-x="727" d="M41 956v78h246v103q0 69 3.5 118t15 98t31 80.5t52.5 57t79 35.5q42 10 100 10h11q65 -1 148 -16v-74q-76 12 -131 12q-2 1 -4 1q-52 0 -90 -13q-39 -13 -63.5 -34.5t-38 -61t-18.5 -84.5t-5 -111v-121h350v-78h-350v-956h-90v956h-246z" />
<glyph unicode="g" horiz-adv-x="1112" d="M131 -82h90q0 -125 84 -197.5t232 -72.5q158 0 244.5 78.5t86.5 218.5v223q-108 -158 -344 -158q-187 0 -290 98t-103 279v291q0 181 103 279t290 98q248 0 350 -164l13 143h71v-1083q0 -181 -111 -281t-310 -100q-189 0 -298 93.5t-108 254.5zM221 381q0 -139 84.5 -216 t231.5 -77q152 0 241.5 82t89.5 227v271q0 145 -89.5 227t-241.5 82q-147 0 -231.5 -77t-84.5 -216v-303z" />
<glyph unicode="h" horiz-adv-x="1132" d="M154 0v1516h90v-611q107 150 344 150q187 0 290 -90t103 -271v-694h-90v698q0 142 -82.5 210.5t-233.5 68.5t-241 -76t-90 -217v-684h-90z" />
<glyph unicode="i" horiz-adv-x="397" d="M154 0v1034h90v-1034h-90zM154 1266v196h90v-196h-90z" />
<glyph unicode="j" horiz-adv-x="438" d="M-59 -332q49 -13 86 -13q11 0 21 1q45 5 73.5 19t45 48.5t22.5 75t6 99.5v1136h90v-1118q0 -53 -3.5 -94.5t-13 -82.5t-25.5 -69t-42 -51t-62 -33q-33 -8 -76 -8h-9q-50 1 -113 16v74zM195 1266v196h90v-196h-90z" />
<glyph unicode="k" horiz-adv-x="931" d="M154 0v1516h90v-1078l549 596h110l-403 -440l452 -594h-110l-402 526l-196 -213v-313h-90z" />
<glyph unicode="l" horiz-adv-x="397" d="M154 0v1516h90v-1516h-90z" />
<glyph unicode="m" horiz-adv-x="1642" d="M154 0v1034h71l11 -123q44 70 119.5 107t172.5 37q244 0 312 -178q41 87 122 132.5t191 45.5q338 0 338 -350v-705h-90v707q0 270 -258 270q-125 0 -200 -74t-75 -213v-690h-90v707q0 270 -260 270q-124 0 -199 -74t-75 -213v-690h-90z" />
<glyph unicode="n" horiz-adv-x="1132" d="M154 0v1034h71l11 -139q108 160 352 160q190 0 291.5 -89.5t101.5 -271.5v-694h-90v698q0 142 -82.5 210.5t-233.5 68.5t-241 -76t-90 -217v-684h-90z" />
<glyph unicode="o" d="M131 356v322q0 183 111 280t303 97t302.5 -96.5t110.5 -280.5v-322q0 -184 -111 -280t-304 -96q-191 0 -301.5 96.5t-110.5 279.5zM221 350q0 -143 86.5 -218t235.5 -75q151 0 238 75t87 218v334q0 143 -86.5 218t-236.5 75t-237 -75t-87 -218v-334z" />
<glyph unicode="p" horiz-adv-x="1112" d="M154 -410v1444h71l13 -145q51 80 141 123t209 43q187 0 290 -98t103 -279v-322q0 -181 -103.5 -278.5t-291.5 -97.5q-237 0 -342 151v-541h-90zM244 367q0 -141 87 -225.5t244 -84.5q147 0 231.5 77t84.5 216v334q0 139 -84.5 216t-231.5 77q-157 0 -244 -84t-87 -225 v-301z" />
<glyph unicode="q" horiz-adv-x="1112" d="M131 356v322q0 181 103 279t290 98q248 0 350 -164l13 143h71v-1444h-90v547q-108 -157 -344 -157q-187 0 -290 97.5t-103 278.5zM221 350q0 -139 84.5 -216t231.5 -77q152 0 241.5 82.5t89.5 227.5v301q0 145 -89 227t-242 82q-147 0 -231.5 -77t-84.5 -216v-334z" />
<glyph unicode="r" horiz-adv-x="702" d="M154 0v1034h71l13 -153q65 105 184 147q67 23 138 24q55 0 112 -14v-82q-61 13 -115 13q-109 -1 -191 -53q-122 -78 -122 -232v-684h-90z" />
<glyph unicode="s" horiz-adv-x="1073" d="M125 293v10h90v-6q0 -120 83.5 -181t240.5 -61q154 0 236.5 54t82.5 157q0 160 -207 197l-227 45q-272 50 -272 270q0 135 97.5 206t291.5 71q381 0 381 -314v-10h-88v8q0 121 -71.5 180.5t-221.5 59.5q-299 0 -299 -199q0 -83 49.5 -130t150.5 -66l232 -45 q274 -56 274 -269q0 -143 -107 -216.5t-302 -73.5q-198 0 -306 79.5t-108 233.5z" />
<glyph unicode="t" horiz-adv-x="788" d="M41 956v78h225v377l90 27v-404h351v-78h-351v-591q0 -66 5 -111t19 -84.5t38 -61.5t64 -34q37 -12 86 -11h8q55 1 131 13v-76q-83 -15 -148 -16h-11q-58 0 -100 10q-46 10 -79 35.5t-53 57t-31 80.5t-15 98.5t-4 117.5v573h-225z" />
<glyph unicode="u" horiz-adv-x="1132" d="M152 340v694h90v-698q0 -142 82 -210.5t233 -68.5t241.5 75.5t90.5 217.5v684h90v-1034h-72l-12 141q-100 -161 -350 -161q-190 0 -291.5 89t-101.5 271z" />
<glyph unicode="v" horiz-adv-x="1091" d="M61 1034h97l391 -936l391 936h90l-430 -1034h-106z" />
<glyph unicode="w" horiz-adv-x="1646" d="M61 1034h93l315 -925l313 925h86l314 -925l315 925h88l-352 -1034h-103l-307 897l-307 -897h-102z" />
<glyph unicode="x" horiz-adv-x="1013" d="M61 0l394 516l-394 518h107l340 -450l342 450h102l-393 -516l393 -518h-106l-340 451l-342 -451h-103z" />
<glyph unicode="y" horiz-adv-x="1091" d="M61 1034h97l391 -936l391 936h90l-602 -1444h-96l172 410h-10z" />
<glyph unicode="z" horiz-adv-x="976" d="M82 0v78l702 878h-702v78h813v-78l-702 -878h702v-78h-813z" />
<glyph unicode="{" horiz-adv-x="684" d="M0 676v82h47q93 0 150 60.5t57 156.5v391q0 133 82.5 215t214.5 82h92v-82h-78q-97 0 -156 -59.5t-59 -157.5v-369q0 -103 -51.5 -176.5t-140.5 -101.5q89 -28 140.5 -102t51.5 -177v-368q0 -97 59 -157t156 -60h78v-82h-92q-132 0 -214.5 82t-82.5 215v391q0 97 -57 157 t-150 60h-47z" />
<glyph unicode="|" horiz-adv-x="389" d="M154 -276v1986h82v-1986h-82z" />
<glyph unicode="}" horiz-adv-x="684" d="M41 -147h78q98 0 157.5 59.5t59.5 157.5v368q0 103 51 177t139 102q-89 28 -139.5 101.5t-50.5 176.5v369q0 97 -59.5 157t-157.5 60h-78v82h92q133 0 215 -81.5t82 -215.5v-391q0 -96 57 -155.5t150 -59.5h47v-84h-47q-93 0 -150 -60.5t-57 -156.5v-391 q0 -134 -82 -215.5t-215 -81.5h-92v82z" />
<glyph unicode="~" horiz-adv-x="1048" d="M92 678q100 160 227 160q54 0 112.5 -26t101.5 -57t96.5 -57t97.5 -26q90 0 178 127l51 -35q-100 -160 -227 -160q-53 0 -112 26t-102.5 57t-98 57t-99.5 26q-84 0 -172 -127z" />
<glyph unicode="&#xa1;" horiz-adv-x="479" d="M195 -399v1061h90v-1061h-90zM195 838v196h90v-196h-90z" />
<glyph unicode="&#xa2;" horiz-adv-x="1110" d="M113 729v344q0 170 106 269t297 108v229h90v-229q184 -9 287.5 -100.5t103.5 -241.5v-2h-90v8q0 120 -92.5 191t-253.5 71q-169 0 -263.5 -78.5t-94.5 -218.5v-354q0 -141 94.5 -220t263.5 -79q161 0 253.5 71t92.5 191v8h90v-2q0 -150 -103.5 -241.5t-287.5 -100.5v-229 h-90v229q-191 9 -297 108t-106 269z" />
<glyph unicode="&#xa3;" horiz-adv-x="1306" d="M72 0v84h247v588h-247v73h247v326q0 182 115 282.5t320 100.5q196 0 308 -93t112 -255v-92h-95v92q0 121 -86.5 193.5t-238.5 72.5q-161 0 -250.5 -80t-89.5 -221v-326h479v-73h-479v-588h780v-84h-1122z" />
<glyph unicode="&#xa4;" horiz-adv-x="1282" d="M31 168l211 211q-119 135 -119 340q0 204 119 342l-203 207l53 53l205 -205q140 121 344 121q202 0 340 -119l215 213l55 -55l-213 -215q121 -137 121 -342q0 -204 -121 -344l205 -205l-53 -53l-207 205q-137 -121 -342 -121q-204 0 -344 121l-211 -209zM213 719 q0 -195 119.5 -317.5t308.5 -122.5t308.5 122.5t119.5 317.5t-119.5 317.5t-308.5 122.5t-308.5 -122.5t-119.5 -317.5z" />
<glyph unicode="&#xa5;" horiz-adv-x="1204" d="M14 1434h113l477 -768l477 768h109l-496 -791h359v-74h-404v-569h-94v569h-403v74h356z" />
<glyph unicode="&#xa6;" horiz-adv-x="389" d="M154 -276v749h82v-749h-82zM154 961v749h82v-749h-82z" />
<glyph unicode="&#xa7;" horiz-adv-x="1275" d="M143 551q0 169 129 289q-129 80 -129 254q0 170 126 265t362 95q238 0 362.5 -108t124.5 -322v-10h-94v10q0 172 -99.5 260t-293.5 88q-191 0 -290 -72.5t-99 -199.5q0 -59 17.5 -101.5t53.5 -70t80.5 -43.5t110.5 -29l289 -57q171 -33 255.5 -107.5t84.5 -218.5 q0 -166 -132 -289q132 -82 132 -254q0 -170 -127 -265t-363 -95q-238 0 -361.5 108t-123.5 322v10h94v-10q0 -172 99 -260t292 -88q191 0 291 72.5t100 199.5q0 59 -17.5 101.5t-53.5 70t-80.5 43.5t-110.5 29l-289 57q-84 16 -144.5 40t-105.5 62t-67.5 93.5t-22.5 130.5z M242 559q0 -111 65.5 -166t198.5 -82l289 -55q67 -12 123 -33q116 101 116 242q0 111 -65.5 166t-198.5 82l-291 57q-56 10 -121 31q-116 -99 -116 -242z" />
<glyph unicode="&#xa8;" horiz-adv-x="591" d="M41 1260v192h80v-192h-80zM461 1260v192h80v-192h-80z" />
<glyph unicode="&#xa9;" horiz-adv-x="1802" d="M164 717q0 221 91 388t258 258t388 91t388 -91t258 -258t91 -388t-91 -388t-258 -258t-388 -91t-388 91t-258 258t-91 388zM231 717q0 -309 182.5 -493.5t487.5 -184.5t488.5 184.5t183.5 493.5t-183.5 493.5t-488.5 184.5t-487.5 -184.5t-182.5 -493.5zM561 586v264 q0 144 90.5 222.5t255.5 78.5q155 0 244.5 -73.5t89.5 -200.5v-23h-67v23q0 100 -71 158.5t-196 58.5q-134 0 -207 -64t-73 -180v-264q0 -117 72.5 -180.5t205.5 -63.5q127 0 198 57.5t71 157.5v39h67v-39q0 -126 -90 -200t-246 -74q-163 0 -253.5 79.5t-90.5 223.5z" />
<glyph unicode="&#xaa;" horiz-adv-x="741" d="M109 975q0 97 62.5 144.5t174.5 47.5q154 0 215 -92v160q0 80 -46 119t-130 39q-172 0 -172 -144h-74q0 205 246 205q117 0 182.5 -57t65.5 -168v-436h-58l-12 84q-57 -97 -219 -97q-111 0 -173 48.5t-62 146.5zM180 977q0 -135 185 -135q86 0 139.5 34t56.5 95v12 q-3 59 -57 93t-139 34q-185 0 -185 -133z" />
<glyph unicode="&#xab;" horiz-adv-x="800" d="M41 496v73l399 340v-96l-317 -281l317 -278v-98zM342 496v73l397 340v-96l-315 -281l315 -278v-98z" />
<glyph unicode="&#xac;" horiz-adv-x="1048" d="M61 680v78h926v-510h-82v432h-844z" />
<glyph unicode="&#xad;" horiz-adv-x="495" d="M61 479v78h373v-78h-373z" />
<glyph unicode="&#xae;" horiz-adv-x="749" d="M61 1120q0 142 85.5 228t228.5 86q142 0 227.5 -85.5t85.5 -228.5q0 -142 -85 -227.5t-228 -85.5t-228.5 85.5t-85.5 227.5zM98 1120q0 -127 75.5 -203.5t201.5 -76.5t201 76t75 204q0 129 -75 205t-201 76t-201.5 -76t-75.5 -205zM250 940v360h143q113 0 113 -108 q0 -91 -74 -107l72 -145h-45l-68 141h-100v-141h-41zM291 1118h102q72 0 72 74t-72 74h-102v-148z" />
<glyph unicode="&#xaf;" horiz-adv-x="618" d="M41 1290v70h537v-70h-537z" />
<glyph unicode="&#xb0;" horiz-adv-x="632" d="M57 1194q0 115 72 187.5t186 72.5q115 0 187.5 -72t72.5 -188q0 -114 -72.5 -186t-187.5 -72q-114 0 -186 72t-72 186zM121 1194q0 -88 54 -142.5t140 -54.5q88 0 142.5 54.5t54.5 142.5q0 89 -54.5 144t-142.5 55q-86 0 -140 -55t-54 -144z" />
<glyph unicode="&#xb1;" horiz-adv-x="1048" d="M61 0v78h926v-78h-926zM61 711v77h420v435h82v-435h424v-77h-424v-432h-82v432h-420z" />
<glyph unicode="&#xb2;" horiz-adv-x="782" d="M154 680v63l338 340q75 78 75 160q0 64 -46 100.5t-122 36.5q-82 0 -127 -40.5t-45 -116.5v-31h-73v31q0 107 64.5 164t180.5 57q109 0 175.5 -52.5t66.5 -146.5q0 -113 -106 -209l-285 -293h405v-63h-501z" />
<glyph unicode="&#xb3;" horiz-adv-x="788" d="M139 870v27h70v-18q0 -68 46.5 -107t131.5 -39q82 0 128 40t46 108q0 72 -46 110.5t-130 38.5h-55v53h55q81 0 124.5 41t43.5 109t-45 107.5t-127 39.5q-81 0 -126.5 -38.5t-45.5 -104.5v-20h-70v26q0 93 64 147t180 54q117 0 180.5 -54t63.5 -149q0 -141 -135 -182 q143 -43 143 -187q0 -93 -64.5 -147.5t-181.5 -54.5q-120 0 -185 54t-65 146z" />
<glyph unicode="&#xb4;" horiz-adv-x="403" d="M41 1188l227 328h94l-245 -328h-76z" />
<glyph unicode="&#xb5;" horiz-adv-x="1134" d="M154 -410v1444h90v-698q0 -142 82 -210.5t233 -68.5t241.5 75.5t90.5 217.5v684h90v-1034h-72l-12 141q-100 -161 -350 -161q-204 0 -303 102v-492h-90z" />
<glyph unicode="&#xb6;" horiz-adv-x="1001" d="M72 1112q0 161 87 241.5t242 80.5h447v-1434h-84v1352h-146v-1352h-83v788h-134q-155 0 -242 82t-87 242z" />
<glyph unicode="&#xb7;" horiz-adv-x="407" d="M154 614v207h100v-207h-100z" />
<glyph unicode="&#xb8;" horiz-adv-x="411" d="M41 -168l14 59q149 23 232.5 -15t83.5 -132q0 -93 -83.5 -131t-232.5 -16l-14 59q121 -17 185.5 6.5t64.5 83.5q0 121 -250 86z" />
<glyph unicode="&#xb9;" horiz-adv-x="503" d="M78 1214v74l198 146h74v-754h-74v678z" />
<glyph unicode="&#xba;" horiz-adv-x="741" d="M109 1020v194q0 117 70 178.5t192 61.5t193 -61.5t71 -178.5v-194q0 -117 -71 -178.5t-193 -61.5t-192 61.5t-70 178.5zM182 1018q0 -85 50.5 -129.5t138.5 -44.5t139 44.5t51 129.5v201q0 83 -51 127.5t-139 44.5t-138.5 -44.5t-50.5 -127.5v-201z" />
<glyph unicode="&#xbb;" horiz-adv-x="800" d="M61 156v96l316 280l-316 279v98l400 -340v-73zM362 156v96l316 280l-316 279v98l398 -340v-73z" />
<glyph unicode="&#xbc;" horiz-adv-x="1523" d="M94 1212v74l199 146h74v-754h-74v680zM215 0l987 1434h84l-987 -1434h-84zM905 178v64l258 512h76l-260 -512h264v184h72v-184h131v-64h-131v-178h-72v178h-338z" />
<glyph unicode="&#xbd;" horiz-adv-x="1595" d="M94 1212v74l199 146h74v-754h-74v680zM215 0l987 1434h84l-987 -1434h-84zM969 2v64l338 340q75 75 75 157q0 65 -46 102t-122 37q-81 0 -126.5 -40.5t-45.5 -116.5v-33h-73v33q0 107 64.5 164t180.5 57q110 0 176 -52.5t66 -146.5q0 -116 -106 -209l-285 -292h408v-64 h-504z" />
<glyph unicode="&#xbe;" horiz-adv-x="1638" d="M139 870v27h70v-18q0 -68 46.5 -107t131.5 -39q82 0 128 40t46 108q0 72 -46 110.5t-130 38.5h-55v53h55q81 0 124.5 41t43.5 109t-45 107.5t-127 39.5q-81 0 -126.5 -38.5t-45.5 -104.5v-20h-70v26q0 93 64 147t180 54q117 0 180.5 -54t63.5 -149q0 -141 -135 -182 q143 -43 143 -187q0 -93 -64.5 -147.5t-181.5 -54.5q-120 0 -185 54t-65 146zM328 0l989 1434h84l-989 -1434h-84zM1024 178v64l258 512h76l-260 -512h260v184h69v-184h132v-64h-132v-178h-69v178h-334z" />
<glyph unicode="&#xbf;" horiz-adv-x="1271" d="M154 -2q0 173 116 274.5t322 110.5v309h90v-383h-45q-186 0 -289.5 -82.5t-103.5 -228.5q0 -145 103 -227t290 -82q185 0 288 82t103 227v53h90v-53q0 -180 -128 -283.5t-353 -103.5q-227 0 -355 103t-128 284zM592 868v197h90v-197h-90z" />
<glyph unicode="&#xc0;" horiz-adv-x="1234" d="M0 0l559 1434h117l559 -1434h-102l-158 399h-723l-156 -399h-96zM279 483h671l-336 850zM408 1812h100l197 -296h-80z" />
<glyph unicode="&#xc1;" horiz-adv-x="1234" d="M0 0l559 1434h117l559 -1434h-102l-158 399h-723l-156 -399h-96zM279 483h671l-336 850zM530 1516l197 296h102l-217 -296h-82z" />
<glyph unicode="&#xc2;" horiz-adv-x="1234" d="M0 0l559 1434h117l559 -1434h-102l-158 399h-723l-156 -399h-96zM279 483h671l-336 850zM319 1516l248 296h101l247 -296h-86l-211 235l-215 -235h-84z" />
<glyph unicode="&#xc3;" horiz-adv-x="1234" d="M0 0l559 1434h117l559 -1434h-102l-158 399h-723l-156 -399h-96zM258 1608q92 180 201 180q41 0 89 -25t83 -55t76 -55t71 -25q67 0 142 141l55 -30q-96 -180 -199 -180q-41 0 -89 25t-84 55.5t-77 55.5t-69 25q-70 0 -146 -143zM279 483h671l-336 850z" />
<glyph unicode="&#xc4;" horiz-adv-x="1234" d="M0 0l559 1434h117l559 -1434h-102l-158 399h-723l-156 -399h-96zM279 483h671l-336 850zM332 1565v192h80v-192h-80zM823 1565v192h80v-192h-80z" />
<glyph unicode="&#xc5;" horiz-adv-x="1234" d="M0 0l559 1434h117l559 -1434h-102l-158 399h-723l-156 -399h-96zM279 483h671l-336 850zM424 1663q0 83 53.5 134.5t138.5 51.5q86 0 139.5 -51.5t53.5 -134.5t-53.5 -134.5t-139.5 -51.5q-85 0 -138.5 51.5t-53.5 134.5zM489 1663q0 -60 35 -95.5t92 -35.5 q58 0 92.5 35.5t34.5 95.5q0 59 -34.5 95t-92.5 36q-57 0 -92 -36t-35 -95z" />
<glyph unicode="&#xc6;" horiz-adv-x="2099" d="M0 0l1077 1434h940v-82h-792v-592h690v-84h-690v-592h792v-84h-887v399h-718l-303 -399h-109zM459 483h671v873z" />
<glyph unicode="&#xc7;" horiz-adv-x="1323" d="M133 492v452q0 242 143 376t398 134q245 0 382.5 -119t137.5 -331v-5h-94v5q0 171 -113 269.5t-313 98.5q-211 0 -329 -113.5t-118 -314.5v-452q0 -202 118 -315.5t329 -113.5q200 0 313 98t113 269v6h94v-6q0 -212 -137.5 -331t-382.5 -119q-255 0 -398 134.5 t-143 377.5zM522 -168l15 59q149 23 232 -14.5t83 -132.5q0 -93 -83 -131t-232 -16l-15 59q121 -17 185.5 6.5t64.5 83.5q0 121 -250 86z" />
<glyph unicode="&#xc8;" horiz-adv-x="1122" d="M154 0v1434h886v-82h-792v-592h690v-84h-690v-592h792v-84h-886zM350 1812h101l196 -296h-80z" />
<glyph unicode="&#xc9;" horiz-adv-x="1122" d="M154 0v1434h886v-82h-792v-592h690v-84h-690v-592h792v-84h-886zM473 1516l197 296h102l-217 -296h-82z" />
<glyph unicode="&#xca;" horiz-adv-x="1122" d="M154 0v1434h886v-82h-792v-592h690v-84h-690v-592h792v-84h-886zM262 1516l248 296h100l248 -296h-86l-211 235l-215 -235h-84z" />
<glyph unicode="&#xcb;" horiz-adv-x="1122" d="M154 0v1434h886v-82h-792v-592h690v-84h-690v-592h792v-84h-886zM274 1565v192h80v-192h-80zM766 1565v192h80v-192h-80z" />
<glyph unicode="&#xcc;" horiz-adv-x="401" d="M-49 1812h100l197 -296h-80zM154 0v1434h94v-1434h-94z" />
<glyph unicode="&#xcd;" horiz-adv-x="401" d="M154 0v1434h94v-1434h-94zM154 1516l196 296h103l-217 -296h-82z" />
<glyph unicode="&#xce;" horiz-adv-x="401" d="M-96 1516l248 296h100l248 -296h-86l-211 235l-215 -235h-84zM154 0v1434h94v-1434h-94z" />
<glyph unicode="&#xcf;" horiz-adv-x="401" d="M-43 1565v192h80v-192h-80zM154 0v1434h94v-1434h-94zM367 1565v192h79v-192h-79z" />
<glyph unicode="&#xd0;" horiz-adv-x="1333" d="M0 682v70h154v682h485q257 0 401 -131.5t144 -368.5v-434q0 -237 -144 -368.5t-403 -131.5h-483v682h-154zM248 84h389q215 0 334 109.5t119 306.5v434q0 197 -119 307.5t-332 110.5h-391v-600h340v-70h-340v-598z" />
<glyph unicode="&#xd1;" horiz-adv-x="1337" d="M154 0v1434h90l846 -1260v1260h94v-1434h-88l-848 1260v-1260h-94zM309 1608q92 180 201 180q41 0 89 -25t83 -55t76 -55t71 -25q67 0 142 141l55 -30q-96 -180 -199 -180q-41 0 -89 25t-84 55.5t-77 55.5t-69 25q-70 0 -146 -143z" />
<glyph unicode="&#xd2;" horiz-adv-x="1357" d="M133 492v452q0 242 144.5 376t402.5 134q257 0 401 -134t144 -376v-452q0 -244 -144 -378t-403 -134q-256 0 -400.5 134.5t-144.5 377.5zM227 492q0 -202 119.5 -315.5t331.5 -113.5q215 0 333.5 113t118.5 316v452q0 202 -118.5 315t-331.5 113q-214 0 -333.5 -113.5 t-119.5 -314.5v-452zM453 1812h100l197 -296h-80z" />
<glyph unicode="&#xd3;" horiz-adv-x="1357" d="M133 492v452q0 242 144.5 376t402.5 134q257 0 401 -134t144 -376v-452q0 -244 -144 -378t-403 -134q-256 0 -400.5 134.5t-144.5 377.5zM227 492q0 -202 119.5 -315.5t331.5 -113.5q215 0 333.5 113t118.5 316v452q0 202 -118.5 315t-331.5 113q-214 0 -333.5 -113.5 t-119.5 -314.5v-452zM575 1516l197 296h102l-217 -296h-82z" />
<glyph unicode="&#xd4;" horiz-adv-x="1357" d="M133 492v452q0 242 144.5 376t402.5 134q257 0 401 -134t144 -376v-452q0 -244 -144 -378t-403 -134q-256 0 -400.5 134.5t-144.5 377.5zM227 492q0 -202 119.5 -315.5t331.5 -113.5q215 0 333.5 113t118.5 316v452q0 202 -118.5 315t-331.5 113q-214 0 -333.5 -113.5 t-119.5 -314.5v-452zM365 1516l247 296h101l248 -296h-87l-210 235l-215 -235h-84z" />
<glyph unicode="&#xd5;" horiz-adv-x="1357" d="M133 492v452q0 242 144.5 376t402.5 134q257 0 401 -134t144 -376v-452q0 -244 -144 -378t-403 -134q-256 0 -400.5 134.5t-144.5 377.5zM227 492q0 -202 119.5 -315.5t331.5 -113.5q215 0 333.5 113t118.5 316v452q0 202 -118.5 315t-331.5 113q-214 0 -333.5 -113.5 t-119.5 -314.5v-452zM319 1608q92 180 201 180q41 0 89 -25t83.5 -55t76.5 -55t71 -25q66 0 141 141l55 -30q-96 -180 -198 -180q-41 0 -89 25t-84.5 55.5t-77.5 55.5t-69 25q-69 0 -145 -143z" />
<glyph unicode="&#xd6;" horiz-adv-x="1357" d="M133 492v452q0 242 144.5 376t402.5 134q257 0 401 -134t144 -376v-452q0 -244 -144 -378t-403 -134q-256 0 -400.5 134.5t-144.5 377.5zM227 492q0 -202 119.5 -315.5t331.5 -113.5q215 0 333.5 113t118.5 316v452q0 202 -118.5 315t-331.5 113q-214 0 -333.5 -113.5 t-119.5 -314.5v-452zM377 1565v192h80v-192h-80zM868 1565v192h80v-192h-80z" />
<glyph unicode="&#xd7;" horiz-adv-x="1048" d="M117 373l350 348l-342 342l53 53l342 -340l352 350l56 -55l-350 -352l342 -344l-54 -53l-344 344l-350 -349z" />
<glyph unicode="&#xd8;" horiz-adv-x="1357" d="M133 492v452q0 242 144.5 376t402.5 134q200 0 334 -84l135 236l63 -37l-139 -242q152 -136 152 -383v-452q0 -244 -144 -378t-403 -134q-200 0 -334 81l-135 -233l-64 39l140 242q-152 133 -152 383zM227 492q0 -191 105 -302l637 1102q-116 80 -289 80 q-214 0 -333.5 -113.5t-119.5 -314.5v-452zM389 141q113 -78 289 -78q215 0 333.5 113t118.5 316v452q0 189 -106 301z" />
<glyph unicode="&#xd9;" horiz-adv-x="1333" d="M152 461v973h94v-973q0 -188 111 -293t309 -105q199 0 310 105t111 293v973h95v-973q0 -228 -136 -354.5t-380 -126.5q-242 0 -378 126.5t-136 354.5zM455 1812h100l197 -296h-80z" />
<glyph unicode="&#xda;" horiz-adv-x="1333" d="M152 461v973h94v-973q0 -188 111 -293t309 -105q199 0 310 105t111 293v973h95v-973q0 -228 -136 -354.5t-380 -126.5q-242 0 -378 126.5t-136 354.5zM578 1516l196 296h103l-218 -296h-81z" />
<glyph unicode="&#xdb;" horiz-adv-x="1333" d="M152 461v973h94v-973q0 -188 111 -293t309 -105q199 0 310 105t111 293v973h95v-973q0 -228 -136 -354.5t-380 -126.5q-242 0 -378 126.5t-136 354.5zM367 1516l247 296h101l248 -296h-86l-211 235l-215 -235h-84z" />
<glyph unicode="&#xdc;" horiz-adv-x="1333" d="M152 461v973h94v-973q0 -188 111 -293t309 -105q199 0 310 105t111 293v973h95v-973q0 -228 -136 -354.5t-380 -126.5q-242 0 -378 126.5t-136 354.5zM381 1565v192h80v-192h-80zM872 1565v192h80v-192h-80z" />
<glyph unicode="&#xdd;" horiz-adv-x="1193" d="M8 1434h115l475 -768l479 768h107l-539 -865v-569h-96v569zM510 1516l197 296h102l-217 -296h-82z" />
<glyph unicode="&#xde;" horiz-adv-x="1179" d="M154 0v1434h94v-287h420q206 0 323 -108t117 -322t-116.5 -322t-323.5 -108h-420v-287h-94zM248 371h416q163 0 254.5 86t91.5 260t-91.5 260t-254.5 86h-416v-692z" />
<glyph unicode="&#xdf;" horiz-adv-x="1284" d="M154 0v1130q0 183 134 294.5t351 111.5q216 0 344.5 -101t128.5 -270q0 -123 -64 -210.5t-180 -129.5q151 -43 234.5 -152t83.5 -270q0 -194 -109 -308.5t-305 -114.5q-164 0 -260 94.5t-96 251.5h86q0 -123 77 -196t193 -73q158 0 241 96t83 255q0 173 -119.5 272.5 t-319.5 99.5h-20v78h20q163 0 264 81t101 218t-103 219t-280 82t-286 -92t-109 -244v-1122h-90z" />
<glyph unicode="&#xe0;" horiz-adv-x="1071" d="M92 287q0 155 101 230t290 75q243 0 346 -127v242q0 135 -80 204.5t-221 69.5q-145 0 -220 -59.5t-75 -188.5h-90q0 322 385 322q185 0 288.5 -89t103.5 -264v-702h-72l-10 123q-103 -143 -355 -143q-391 0 -391 307zM182 289q0 -232 316 -232q150 0 240.5 61t90.5 171 q0 108 -91 169.5t-240 61.5q-316 0 -316 -231zM289 1516h96l227 -328h-77z" />
<glyph unicode="&#xe1;" horiz-adv-x="1071" d="M92 287q0 155 101 230t290 75q243 0 346 -127v242q0 135 -80 204.5t-221 69.5q-145 0 -220 -59.5t-75 -188.5h-90q0 322 385 322q185 0 288.5 -89t103.5 -264v-702h-72l-10 123q-103 -143 -355 -143q-391 0 -391 307zM182 289q0 -232 316 -232q150 0 240.5 61t90.5 171 q0 108 -91 169.5t-240 61.5q-316 0 -316 -231zM455 1188l227 328h94l-246 -328h-75z" />
<glyph unicode="&#xe2;" horiz-adv-x="1071" d="M92 287q0 155 101 230t290 75q243 0 346 -127v242q0 135 -80 204.5t-221 69.5q-145 0 -220 -59.5t-75 -188.5h-90q0 322 385 322q185 0 288.5 -89t103.5 -264v-702h-72l-10 123q-103 -143 -355 -143q-391 0 -391 307zM182 289q0 -232 316 -232q150 0 240.5 61t90.5 171 q0 108 -91 169.5t-240 61.5q-316 0 -316 -231zM256 1188l233 328h91l231 -328h-84l-192 260l-195 -260h-84z" />
<glyph unicode="&#xe3;" horiz-adv-x="1071" d="M92 287q0 155 101 230t290 75q243 0 346 -127v242q0 135 -80 204.5t-221 69.5q-145 0 -220 -59.5t-75 -188.5h-90q0 322 385 322q185 0 288.5 -89t103.5 -264v-702h-72l-10 123q-103 -143 -355 -143q-391 0 -391 307zM182 289q0 -232 316 -232q150 0 240.5 61t90.5 171 q0 108 -91 169.5t-240 61.5q-316 0 -316 -231zM205 1307q50 97 96 138.5t98 41.5q33 0 66 -16.5t59.5 -40t51 -47t51 -40t49.5 -16.5q31 0 62.5 33t72.5 108l53 -30q-50 -97 -95 -139t-97 -42q-41 0 -83 25.5t-70.5 55.5t-63 55.5t-62.5 25.5q-30 0 -61.5 -33.5 t-73.5 -109.5z" />
<glyph unicode="&#xe4;" horiz-adv-x="1071" d="M92 287q0 155 101 230t290 75q243 0 346 -127v242q0 135 -80 204.5t-221 69.5q-145 0 -220 -59.5t-75 -188.5h-90q0 322 385 322q185 0 288.5 -89t103.5 -264v-702h-72l-10 123q-103 -143 -355 -143q-391 0 -391 307zM182 289q0 -232 316 -232q150 0 240.5 61t90.5 171 q0 108 -91 169.5t-240 61.5q-316 0 -316 -231zM283 1260v192h79v-192h-79zM702 1260v192h80v-192h-80z" />
<glyph unicode="&#xe5;" horiz-adv-x="1071" d="M92 287q0 155 101 230t290 75q243 0 346 -127v242q0 135 -80 204.5t-221 69.5q-145 0 -220 -59.5t-75 -188.5h-90q0 322 385 322q185 0 288.5 -89t103.5 -264v-702h-72l-10 123q-103 -143 -355 -143q-391 0 -391 307zM182 289q0 -232 316 -232q150 0 240.5 61t90.5 171 q0 108 -91 169.5t-240 61.5q-316 0 -316 -231zM340 1339q0 83 53.5 135t138.5 52q86 0 139.5 -52t53.5 -135t-53.5 -134.5t-139.5 -51.5q-85 0 -138.5 51.5t-53.5 134.5zM406 1339q0 -59 34.5 -95t91.5 -36q58 0 92.5 36t34.5 95q0 60 -34.5 95.5t-92.5 35.5 q-57 0 -91.5 -35.5t-34.5 -95.5z" />
<glyph unicode="&#xe6;" horiz-adv-x="1787" d="M92 287q0 155 101 230t290 75q233 0 346 -125v240q0 135 -80 204.5t-221 69.5q-295 0 -295 -248h-90q0 163 99 242.5t286 79.5q134 0 224.5 -50.5t128.5 -150.5q44 99 140.5 150t231.5 51q187 0 295.5 -96.5t108.5 -280.5v-182h-737v-140q0 -141 86.5 -220t244.5 -79 q147 0 230 68.5t86 185.5h90q-5 -154 -112 -242.5t-288 -88.5q-139 0 -236 53t-140 151q-39 -99 -142.5 -151.5t-255.5 -52.5q-186 0 -288.5 76t-102.5 231zM182 289q0 -232 316 -232q150 0 240.5 61t90.5 171q0 108 -91 169.5t-240 61.5q-316 0 -316 -231zM920 573h649v111 q0 143 -87 218t-237 75q-151 0 -238 -75t-87 -218v-111z" />
<glyph unicode="&#xe7;" horiz-adv-x="1069" d="M131 360v314q0 181 110.5 281t309.5 100q190 0 298.5 -93t108.5 -253v-2h-90v8q0 120 -84 191t-233 71q-156 0 -243 -78.5t-87 -218.5v-324q0 -141 87 -220t243 -79q149 0 233 71t84 191v9h90v-2q0 -160 -108.5 -253t-298.5 -93q-199 0 -309.5 99.5t-110.5 280.5z M401 -168l15 59q149 23 232 -14.5t83 -132.5q0 -93 -83 -131t-232 -16l-15 59q121 -17 185.5 6.5t64.5 83.5q0 121 -250 86z" />
<glyph unicode="&#xe8;" d="M131 360v318q0 182 111 279.5t303 97.5q190 0 301.5 -97.5t111.5 -279.5v-182h-737v-142q0 -139 86 -218t244 -79q147 0 230.5 68.5t86.5 185.5h90q-5 -154 -112.5 -242.5t-294.5 -88.5q-198 0 -309 99t-111 281zM221 573h647v111q0 142 -86.5 217.5t-236.5 75.5 q-151 0 -237.5 -75.5t-86.5 -217.5v-111zM299 1516h96l228 -328h-78z" />
<glyph unicode="&#xe9;" d="M131 360v318q0 182 111 279.5t303 97.5q190 0 301.5 -97.5t111.5 -279.5v-182h-737v-142q0 -139 86 -218t244 -79q147 0 230.5 68.5t86.5 185.5h90q-5 -154 -112.5 -242.5t-294.5 -88.5q-198 0 -309 99t-111 281zM221 573h647v111q0 142 -86.5 217.5t-236.5 75.5 q-151 0 -237.5 -75.5t-86.5 -217.5v-111zM465 1188l227 328h94l-245 -328h-76z" />
<glyph unicode="&#xea;" d="M131 360v318q0 182 111 279.5t303 97.5q190 0 301.5 -97.5t111.5 -279.5v-182h-737v-142q0 -139 86 -218t244 -79q147 0 230.5 68.5t86.5 185.5h90q-5 -154 -112.5 -242.5t-294.5 -88.5q-198 0 -309 99t-111 281zM221 573h647v111q0 142 -86.5 217.5t-236.5 75.5 q-151 0 -237.5 -75.5t-86.5 -217.5v-111zM266 1188l234 328h90l231 -328h-84l-192 260l-195 -260h-84z" />
<glyph unicode="&#xeb;" d="M131 360v318q0 182 111 279.5t303 97.5q190 0 301.5 -97.5t111.5 -279.5v-182h-737v-142q0 -139 86 -218t244 -79q147 0 230.5 68.5t86.5 185.5h90q-5 -154 -112.5 -242.5t-294.5 -88.5q-198 0 -309 99t-111 281zM221 573h647v111q0 142 -86.5 217.5t-236.5 75.5 q-151 0 -237.5 -75.5t-86.5 -217.5v-111zM293 1260v192h80v-192h-80zM713 1260v192h80v-192h-80z" />
<glyph unicode="&#xec;" horiz-adv-x="397" d="M-66 1516h97l227 -328h-78zM154 0v1034h90v-1034h-90z" />
<glyph unicode="&#xed;" horiz-adv-x="397" d="M141 1188l228 328h94l-246 -328h-76zM154 0v1034h90v-1034h-90z" />
<glyph unicode="&#xee;" horiz-adv-x="397" d="M-78 1188l234 328h90l231 -328h-84l-192 260l-195 -260h-84zM154 0v1034h90v-1034h-90z" />
<glyph unicode="&#xef;" horiz-adv-x="397" d="M-10 1260v192h80v-192h-80zM154 0v1034h90v-1034h-90zM330 1260v192h78v-192h-78z" />
<glyph unicode="&#xf0;" d="M131 356v240q0 183 111 280t303 97q180 0 274 -88q-73 216 -227 370l-256 -131l-25 60l232 116q-114 100 -279 168l29 68q186 -73 325 -197l232 117l24 -57l-206 -107q142 -145 216 -343t74 -435v-158q0 -183 -111.5 -279.5t-303.5 -96.5q-191 0 -301.5 96.5 t-110.5 279.5zM221 350q0 -143 86.5 -218t235.5 -75q151 0 238 75.5t87 217.5v228q-9 317 -323 317q-151 0 -237.5 -75.5t-86.5 -217.5v-252z" />
<glyph unicode="&#xf1;" horiz-adv-x="1132" d="M154 0v1034h71l11 -139q108 160 352 160q190 0 291.5 -89.5t101.5 -271.5v-694h-90v698q0 142 -82.5 210.5t-233.5 68.5t-241 -76t-90 -217v-684h-90zM236 1307q50 97 96 138.5t98 41.5q33 0 66 -16.5t59.5 -40t51 -47t51 -40t49.5 -16.5q31 0 62.5 33t72.5 108l53 -30 q-50 -97 -95.5 -139t-97.5 -42q-41 0 -83 25.5t-70 55.5t-62.5 55.5t-62.5 25.5q-30 0 -61.5 -33.5t-73.5 -109.5z" />
<glyph unicode="&#xf2;" d="M131 356v322q0 183 111 280t303 97t302.5 -96.5t110.5 -280.5v-322q0 -184 -111 -280t-304 -96q-191 0 -301.5 96.5t-110.5 279.5zM221 350q0 -143 86.5 -218t235.5 -75q151 0 238 75t87 218v334q0 143 -86.5 218t-236.5 75t-237 -75t-87 -218v-334zM299 1516h96 l228 -328h-78z" />
<glyph unicode="&#xf3;" d="M131 356v322q0 183 111 280t303 97t302.5 -96.5t110.5 -280.5v-322q0 -184 -111 -280t-304 -96q-191 0 -301.5 96.5t-110.5 279.5zM221 350q0 -143 86.5 -218t235.5 -75q151 0 238 75t87 218v334q0 143 -86.5 218t-236.5 75t-237 -75t-87 -218v-334zM465 1188l227 328h94 l-245 -328h-76z" />
<glyph unicode="&#xf4;" d="M131 356v322q0 183 111 280t303 97t302.5 -96.5t110.5 -280.5v-322q0 -184 -111 -280t-304 -96q-191 0 -301.5 96.5t-110.5 279.5zM221 350q0 -143 86.5 -218t235.5 -75q151 0 238 75t87 218v334q0 143 -86.5 218t-236.5 75t-237 -75t-87 -218v-334zM266 1188l234 328h90 l231 -328h-84l-192 260l-195 -260h-84z" />
<glyph unicode="&#xf5;" d="M131 356v322q0 183 111 280t303 97t302.5 -96.5t110.5 -280.5v-322q0 -184 -111 -280t-304 -96q-191 0 -301.5 96.5t-110.5 279.5zM213 1307q50 97 96 138.5t99 41.5q41 0 82 -25t69 -55t62.5 -55t62.5 -25q31 0 62.5 33t72.5 108l53 -30q-50 -97 -95 -139t-97 -42 q-41 0 -83 25.5t-70.5 55.5t-63 55.5t-62.5 25.5q-30 0 -61.5 -33.5t-73.5 -109.5zM221 350q0 -143 86.5 -218t235.5 -75q151 0 238 75t87 218v334q0 143 -86.5 218t-236.5 75t-237 -75t-87 -218v-334z" />
<glyph unicode="&#xf6;" d="M131 356v322q0 183 111 280t303 97t302.5 -96.5t110.5 -280.5v-322q0 -184 -111 -280t-304 -96q-191 0 -301.5 96.5t-110.5 279.5zM221 350q0 -143 86.5 -218t235.5 -75q151 0 238 75t87 218v334q0 143 -86.5 218t-236.5 75t-237 -75t-87 -218v-334zM293 1260v192h80 v-192h-80zM713 1260v192h80v-192h-80z" />
<glyph unicode="&#xf7;" horiz-adv-x="1048" d="M61 680v78h926v-78h-926zM475 162v207h100v-207h-100zM475 1067v209h100v-209h-100z" />
<glyph unicode="&#xf8;" d="M131 356v322q0 183 111 280t303 97q139 0 241 -54l99 170l55 -32l-100 -174q118 -98 118 -287v-322q0 -184 -111 -280t-304 -96q-142 0 -242 53l-98 -170l-56 33l101 174q-117 100 -117 286zM221 350q0 -130 72 -205l450 783q-79 49 -198 49q-150 0 -237 -75t-87 -218 v-334zM342 106q79 -49 201 -49q151 0 238 75t87 218v334q0 130 -73 203z" />
<glyph unicode="&#xf9;" horiz-adv-x="1132" d="M152 340v694h90v-698q0 -142 82 -210.5t233 -68.5t241.5 75.5t90.5 217.5v684h90v-1034h-72l-12 141q-100 -161 -350 -161q-190 0 -291.5 89t-101.5 271zM340 1516h96l228 -328h-78z" />
<glyph unicode="&#xfa;" horiz-adv-x="1132" d="M152 340v694h90v-698q0 -142 82 -210.5t233 -68.5t241.5 75.5t90.5 217.5v684h90v-1034h-72l-12 141q-100 -161 -350 -161q-190 0 -291.5 89t-101.5 271zM465 1188l227 328h94l-245 -328h-76z" />
<glyph unicode="&#xfb;" horiz-adv-x="1132" d="M152 340v694h90v-698q0 -142 82 -210.5t233 -68.5t241.5 75.5t90.5 217.5v684h90v-1034h-72l-12 141q-100 -161 -350 -161q-190 0 -291.5 89t-101.5 271zM287 1188l233 328h90l232 -328h-84l-193 260l-194 -260h-84z" />
<glyph unicode="&#xfc;" horiz-adv-x="1132" d="M152 340v694h90v-698q0 -142 82 -210.5t233 -68.5t241.5 75.5t90.5 217.5v684h90v-1034h-72l-12 141q-100 -161 -350 -161q-190 0 -291.5 89t-101.5 271zM313 1260v192h80v-192h-80zM733 1260v192h80v-192h-80z" />
<glyph unicode="&#xfd;" horiz-adv-x="1091" d="M61 1034h97l391 -936l391 936h90l-602 -1444h-96l172 410h-10zM467 1188l227 328h94l-245 -328h-76z" />
<glyph unicode="&#xfe;" horiz-adv-x="1112" d="M154 -410v1926h90v-617q51 75 139.5 115.5t204.5 40.5q187 0 290 -98t103 -279v-322q0 -181 -103.5 -278.5t-291.5 -97.5q-237 0 -342 151v-541h-90zM244 367q0 -145 89 -227.5t242 -82.5q147 0 231.5 77t84.5 216v334q0 139 -84.5 216t-231.5 77q-153 0 -242 -82 t-89 -227v-301z" />
<glyph unicode="&#xff;" horiz-adv-x="1091" d="M61 1034h97l391 -936l391 936h90l-602 -1444h-96l172 410h-10zM295 1260v192h80v-192h-80zM715 1260v192h80v-192h-80z" />
<glyph unicode="&#x152;" horiz-adv-x="2109" d="M133 492v452q0 242 145 376t400 134q153 0 268.5 -51t183.5 -148v179h887v-82h-792v-592h690v-84h-690v-592h792v-84h-887v178q-138 -198 -454 -198q-256 0 -399.5 134t-143.5 378zM227 492q0 -202 119.5 -315.5t331.5 -113.5q215 0 333.5 112.5t118.5 313.5v455 q0 202 -118.5 315t-331.5 113q-215 0 -334 -113t-119 -315v-452z" />
<glyph unicode="&#x153;" horiz-adv-x="1826" d="M131 356v322q0 184 110 280.5t304 96.5q129 0 224 -47.5t144 -137.5q47 90 142.5 137.5t226.5 47.5q194 0 304 -96.5t110 -280.5v-182h-738v-142q0 -139 86.5 -218t243.5 -79q148 0 232 69.5t86 186.5h90q-3 -154 -109.5 -243.5t-290.5 -89.5q-281 0 -383 184 q-47 -91 -142.5 -137.5t-227.5 -46.5q-193 0 -302.5 96t-109.5 280zM221 350q0 -143 86.5 -218t235.5 -75q151 0 238 75t87 218v334q0 143 -86.5 218t-236.5 75t-237 -75t-87 -218v-334zM958 573h648v111q0 143 -86 218t-236 75q-151 0 -238.5 -75.5t-87.5 -217.5v-111z" />
<glyph unicode="&#x178;" horiz-adv-x="1193" d="M8 1434h115l475 -768l479 768h107l-539 -865v-569h-96v569zM311 1565v192h80v-192h-80zM803 1565v192h80v-192h-80z" />
<glyph unicode="&#x2c6;" horiz-adv-x="636" d="M41 1188l233 328h91l231 -328h-84l-193 260l-194 -260h-84z" />
<glyph unicode="&#x2dc;" horiz-adv-x="741" d="M41 1307q50 97 96 138.5t99 41.5q41 0 82 -25t69 -55t62.5 -55t62.5 -25q31 0 62.5 33t72.5 108l53 -30q-50 -97 -95 -139t-97 -42q-41 0 -83 25.5t-70.5 55.5t-63 55.5t-62.5 25.5q-30 0 -61.5 -33.5t-73.5 -109.5z" />
<glyph unicode="&#x2000;" horiz-adv-x="924" />
<glyph unicode="&#x2001;" horiz-adv-x="1849" />
<glyph unicode="&#x2002;" horiz-adv-x="924" />
<glyph unicode="&#x2003;" horiz-adv-x="1849" />
<glyph unicode="&#x2004;" horiz-adv-x="616" />
<glyph unicode="&#x2005;" horiz-adv-x="462" />
<glyph unicode="&#x2006;" horiz-adv-x="308" />
<glyph unicode="&#x2007;" horiz-adv-x="308" />
<glyph unicode="&#x2008;" horiz-adv-x="231" />
<glyph unicode="&#x2009;" horiz-adv-x="369" />
<glyph unicode="&#x200a;" horiz-adv-x="102" />
<glyph unicode="&#x2010;" horiz-adv-x="495" d="M61 479v78h373v-78h-373z" />
<glyph unicode="&#x2011;" horiz-adv-x="495" d="M61 479v78h373v-78h-373z" />
<glyph unicode="&#x2012;" horiz-adv-x="495" d="M61 479v78h373v-78h-373z" />
<glyph unicode="&#x2013;" horiz-adv-x="1044" d="M10 479v78h1024v-78h-1024z" />
<glyph unicode="&#x2014;" horiz-adv-x="2068" d="M10 479v78h2048v-78h-2048z" />
<glyph unicode="&#x2018;" horiz-adv-x="407" d="M154 1174l30 442h70v-442h-100z" />
<glyph unicode="&#x2019;" horiz-adv-x="407" d="M154 1174v442h100l-31 -442h-69z" />
<glyph unicode="&#x201a;" horiz-adv-x="407" d="M154 207h100l-31 -443h-69v443z" />
<glyph unicode="&#x201c;" horiz-adv-x="620" d="M154 1174l30 442h70v-442h-100zM367 1174l30 442h70v-442h-100z" />
<glyph unicode="&#x201d;" horiz-adv-x="620" d="M154 1174v442h100l-31 -442h-69zM367 1174v442h100l-31 -442h-69z" />
<glyph unicode="&#x201e;" horiz-adv-x="620" d="M154 207h100l-31 -443h-69v443zM367 207h100l-31 -443h-69v443z" />
<glyph unicode="&#x2022;" horiz-adv-x="552" d="M78 717q0 89 55 145t143 56q89 0 145 -56t56 -145q0 -88 -56 -143.5t-145 -55.5q-88 0 -143 55.5t-55 143.5z" />
<glyph unicode="&#x2026;" horiz-adv-x="1589" d="M154 0v207h100v-207h-100zM745 0v207h101v-207h-101zM1337 0v207h99v-207h-99z" />
<glyph unicode="&#x202f;" horiz-adv-x="369" />
<glyph unicode="&#x2039;" horiz-adv-x="501" d="M41 496v73l399 340v-96l-317 -281l317 -278v-98z" />
<glyph unicode="&#x203a;" horiz-adv-x="501" d="M57 156v96l316 280l-316 279v98l398 -340v-73z" />
<glyph unicode="&#x205f;" horiz-adv-x="462" />
<glyph unicode="&#x20ac;" horiz-adv-x="1415" d="M72 680v74h153v188q0 243 143 377.5t398 134.5q244 0 382 -121.5t138 -335.5h-94q0 174 -113 273.5t-313 99.5q-212 0 -329.5 -112.5t-117.5 -315.5v-188h519v-74h-519v-191q0 -201 119 -314.5t326 -113.5q202 0 316 100t112 273h94q2 -212 -137 -333t-385 -121 q-254 0 -396.5 133.5t-142.5 375.5v191h-153z" />
<glyph unicode="&#x2122;" horiz-adv-x="1169" d="M57 1376v58h457v-58h-197v-479h-65v479h-195zM569 897v537h62l180 -326l178 326h62v-537h-62v424l-178 -322l-178 322v-424h-64z" />
<glyph unicode="&#x25fc;" horiz-adv-x="1034" d="M0 0v1034h1034v-1034h-1034z" />
</font>
</defs>
</svg>
